<mxfile host="Electron" modified="2024-03-09T23:58:41.811Z" agent="Mozilla/5.0 (X11; Linux x86_64) AppleWebKit/537.36 (KHTML, like Gecko) draw.io/23.1.5 Chrome/120.0.6099.109 Electron/28.1.0 Safari/537.36" etag="1I5ad2yTlDuH0Ttnwsiy" version="23.1.5" type="device">
  <diagram name="PÃ¡gina-1" id="DwXMAEp6Q4InmtLt4obq">
    <mxGraphModel dx="1322" dy="1839" grid="0" gridSize="1" guides="1" tooltips="1" connect="1" arrows="1" fold="1" page="0" pageScale="1" pageWidth="1169" pageHeight="827" math="0" shadow="0">
      <root>
        <mxCell id="0" />
        <mxCell id="1" parent="0" />
        <mxCell id="SvNNcQJxwwT7Z2b7dxgG-37" value="" style="rounded=0;whiteSpace=wrap;html=1;rotation=90;fillColor=#fff2cc;strokeColor=#d6b656;" parent="1" vertex="1">
          <mxGeometry x="922.75" y="36.49000000000001" width="150" height="120" as="geometry" />
        </mxCell>
        <mxCell id="SvNNcQJxwwT7Z2b7dxgG-38" value="" style="rounded=0;whiteSpace=wrap;html=1;rotation=90;fillColor=#dae8fc;strokeColor=#6c8ebf;" parent="1" vertex="1">
          <mxGeometry x="1181" y="39.86999999999997" width="150" height="120" as="geometry" />
        </mxCell>
        <mxCell id="SvNNcQJxwwT7Z2b7dxgG-39" value="&lt;b style=&quot;border-color: var(--border-color);&quot;&gt;&lt;font style=&quot;border-color: var(--border-color); font-size: 17px;&quot;&gt;&lt;i style=&quot;border-color: var(--border-color);&quot;&gt;Data Memory&lt;/i&gt;&lt;/font&gt;&lt;/b&gt;" style="text;html=1;strokeColor=none;fillColor=none;align=center;verticalAlign=middle;whiteSpace=wrap;rounded=0;" parent="1" vertex="1">
          <mxGeometry x="967.75" y="110.16000000000001" width="60" height="30" as="geometry" />
        </mxCell>
        <mxCell id="SvNNcQJxwwT7Z2b7dxgG-40" value="&lt;span style=&quot;font-size: 17px;&quot;&gt;&lt;b&gt;&lt;i&gt;Instruction Memory&lt;/i&gt;&lt;/b&gt;&lt;/span&gt;" style="text;html=1;strokeColor=none;fillColor=none;align=center;verticalAlign=middle;whiteSpace=wrap;rounded=0;" parent="1" vertex="1">
          <mxGeometry x="1226" y="84.86999999999998" width="60" height="30" as="geometry" />
        </mxCell>
        <mxCell id="SvNNcQJxwwT7Z2b7dxgG-41" value="&lt;font style=&quot;font-size: 10px;&quot;&gt;0&lt;/font&gt;" style="text;html=1;strokeColor=none;fillColor=none;align=center;verticalAlign=middle;whiteSpace=wrap;rounded=0;" parent="1" vertex="1">
          <mxGeometry x="1186" y="166.76999999999995" width="30" height="30" as="geometry" />
        </mxCell>
        <mxCell id="SvNNcQJxwwT7Z2b7dxgG-42" value="&lt;span style=&quot;font-size: 10px;&quot;&gt;32&lt;/span&gt;" style="text;html=1;strokeColor=none;fillColor=none;align=center;verticalAlign=middle;whiteSpace=wrap;rounded=0;" parent="1" vertex="1">
          <mxGeometry x="1296" y="166.76999999999995" width="30" height="30" as="geometry" />
        </mxCell>
        <mxCell id="SvNNcQJxwwT7Z2b7dxgG-43" value="&lt;font style=&quot;font-size: 7px;&quot;&gt;0000 0000 h&lt;/font&gt;" style="text;html=1;strokeColor=none;fillColor=none;align=center;verticalAlign=middle;whiteSpace=wrap;rounded=0;" parent="1" vertex="1">
          <mxGeometry x="1137" y="155.05000000000004" width="71" height="30" as="geometry" />
        </mxCell>
        <mxCell id="SvNNcQJxwwT7Z2b7dxgG-44" value="&lt;font style=&quot;font-size: 7px;&quot;&gt;&amp;nbsp;0000 0FFF h&lt;/font&gt;" style="text;html=1;strokeColor=none;fillColor=none;align=center;verticalAlign=middle;whiteSpace=wrap;rounded=0;" parent="1" vertex="1">
          <mxGeometry x="1135" y="12.62999999999996" width="71" height="30" as="geometry" />
        </mxCell>
        <mxCell id="SvNNcQJxwwT7Z2b7dxgG-45" value="&lt;font style=&quot;font-size: 7px;&quot;&gt;&amp;nbsp;0000 0000 h&lt;/font&gt;" style="text;html=1;strokeColor=none;fillColor=none;align=center;verticalAlign=middle;whiteSpace=wrap;rounded=0;" parent="1" vertex="1">
          <mxGeometry x="878" y="151.25" width="71" height="27.24" as="geometry" />
        </mxCell>
        <mxCell id="SvNNcQJxwwT7Z2b7dxgG-46" value="&lt;font style=&quot;font-size: 7px;&quot;&gt;0000 03E0 h&lt;/font&gt;" style="text;html=1;strokeColor=none;fillColor=none;align=center;verticalAlign=middle;whiteSpace=wrap;rounded=0;" parent="1" vertex="1">
          <mxGeometry x="879" y="36.629999999999995" width="71" height="9.37" as="geometry" />
        </mxCell>
        <mxCell id="F-M7a3G-75QDVNxdtMYs-67" value="" style="swimlane;fontStyle=0;childLayout=stackLayout;horizontal=1;startSize=0;horizontalStack=0;resizeParent=1;resizeParentMax=0;resizeLast=0;collapsible=1;marginBottom=0;whiteSpace=wrap;html=1;" parent="1" vertex="1">
          <mxGeometry x="1386" y="60.69000000000002" width="140" height="170" as="geometry" />
        </mxCell>
        <mxCell id="F-M7a3G-75QDVNxdtMYs-83" value="..." style="text;strokeColor=#82b366;fillColor=#d5e8d4;align=center;verticalAlign=middle;spacingLeft=4;spacingRight=4;overflow=hidden;points=[[0,0.5],[1,0.5]];portConstraint=eastwest;rotatable=0;whiteSpace=wrap;html=1;" parent="F-M7a3G-75QDVNxdtMYs-67" vertex="1">
          <mxGeometry width="140" height="20" as="geometry" />
        </mxCell>
        <mxCell id="F-M7a3G-75QDVNxdtMYs-75" value="IRQ3 -&amp;gt; (JMP)" style="text;strokeColor=#82b366;fillColor=#d5e8d4;align=center;verticalAlign=middle;spacingLeft=4;spacingRight=4;overflow=hidden;points=[[0,0.5],[1,0.5]];portConstraint=eastwest;rotatable=0;whiteSpace=wrap;html=1;" parent="F-M7a3G-75QDVNxdtMYs-67" vertex="1">
          <mxGeometry y="20" width="140" height="30" as="geometry" />
        </mxCell>
        <mxCell id="F-M7a3G-75QDVNxdtMYs-74" value="IRQ2 -&amp;gt; (JMP)" style="text;strokeColor=#82b366;fillColor=#d5e8d4;align=center;verticalAlign=middle;spacingLeft=4;spacingRight=4;overflow=hidden;points=[[0,0.5],[1,0.5]];portConstraint=eastwest;rotatable=0;whiteSpace=wrap;html=1;" parent="F-M7a3G-75QDVNxdtMYs-67" vertex="1">
          <mxGeometry y="50" width="140" height="30" as="geometry" />
        </mxCell>
        <mxCell id="F-M7a3G-75QDVNxdtMYs-71" value="IRQ1 -&amp;gt; (JMP)" style="text;strokeColor=#82b366;fillColor=#d5e8d4;align=center;verticalAlign=middle;spacingLeft=4;spacingRight=4;overflow=hidden;points=[[0,0.5],[1,0.5]];portConstraint=eastwest;rotatable=0;whiteSpace=wrap;html=1;" parent="F-M7a3G-75QDVNxdtMYs-67" vertex="1">
          <mxGeometry y="80" width="140" height="30" as="geometry" />
        </mxCell>
        <mxCell id="F-M7a3G-75QDVNxdtMYs-72" value="IRQ0 -&amp;gt; (JMP)" style="text;strokeColor=#82b366;fillColor=#d5e8d4;align=center;verticalAlign=middle;spacingLeft=4;spacingRight=4;overflow=hidden;points=[[0,0.5],[1,0.5]];portConstraint=eastwest;rotatable=0;whiteSpace=wrap;html=1;" parent="F-M7a3G-75QDVNxdtMYs-67" vertex="1">
          <mxGeometry y="110" width="140" height="30" as="geometry" />
        </mxCell>
        <mxCell id="F-M7a3G-75QDVNxdtMYs-73" value="RESET -&amp;gt; (JMP 14H)" style="text;strokeColor=#82b366;fillColor=#d5e8d4;align=center;verticalAlign=middle;spacingLeft=4;spacingRight=4;overflow=hidden;points=[[0,0.5],[1,0.5]];portConstraint=eastwest;rotatable=0;whiteSpace=wrap;html=1;" parent="F-M7a3G-75QDVNxdtMYs-67" vertex="1">
          <mxGeometry y="140" width="140" height="30" as="geometry" />
        </mxCell>
        <mxCell id="F-M7a3G-75QDVNxdtMYs-76" value="&lt;font style=&quot;font-size: 10px;&quot;&gt;0000 0000 h&lt;/font&gt;" style="text;html=1;strokeColor=none;fillColor=none;align=center;verticalAlign=middle;whiteSpace=wrap;rounded=0;" parent="1" vertex="1">
          <mxGeometry x="1522" y="201.69000000000014" width="71" height="30" as="geometry" />
        </mxCell>
        <mxCell id="F-M7a3G-75QDVNxdtMYs-77" value="&lt;font style=&quot;font-size: 10px;&quot;&gt;0000 0004 h&lt;/font&gt;" style="text;html=1;strokeColor=none;fillColor=none;align=center;verticalAlign=middle;whiteSpace=wrap;rounded=0;" parent="1" vertex="1">
          <mxGeometry x="1522" y="170.69000000000003" width="71" height="31" as="geometry" />
        </mxCell>
        <mxCell id="F-M7a3G-75QDVNxdtMYs-78" value="&lt;font style=&quot;font-size: 10px;&quot;&gt;0000 0008 h&lt;/font&gt;" style="text;html=1;strokeColor=none;fillColor=none;align=center;verticalAlign=middle;whiteSpace=wrap;rounded=0;" parent="1" vertex="1">
          <mxGeometry x="1522" y="140.69000000000014" width="71" height="30" as="geometry" />
        </mxCell>
        <mxCell id="F-M7a3G-75QDVNxdtMYs-79" value="&lt;font style=&quot;font-size: 10px;&quot;&gt;0000 000C h&lt;/font&gt;" style="text;html=1;strokeColor=none;fillColor=none;align=center;verticalAlign=middle;whiteSpace=wrap;rounded=0;" parent="1" vertex="1">
          <mxGeometry x="1523" y="110.70000000000013" width="71" height="30" as="geometry" />
        </mxCell>
        <mxCell id="F-M7a3G-75QDVNxdtMYs-80" value="&lt;font style=&quot;font-size: 10px;&quot;&gt;0000 0010 h&lt;/font&gt;" style="text;html=1;strokeColor=none;fillColor=none;align=center;verticalAlign=middle;whiteSpace=wrap;rounded=0;" parent="1" vertex="1">
          <mxGeometry x="1522" y="81.82000000000014" width="71" height="30" as="geometry" />
        </mxCell>
        <mxCell id="F-M7a3G-75QDVNxdtMYs-84" value="&lt;font style=&quot;font-size: 10px;&quot;&gt;0000 0014 h&lt;/font&gt;" style="text;html=1;strokeColor=none;fillColor=none;align=center;verticalAlign=middle;whiteSpace=wrap;rounded=0;" parent="1" vertex="1">
          <mxGeometry x="1522" y="56.8500000000001" width="71" height="30" as="geometry" />
        </mxCell>
        <mxCell id="F-M7a3G-75QDVNxdtMYs-85" value="" style="rounded=0;whiteSpace=wrap;html=1;rotation=90;fillColor=#ffe6cc;strokeColor=#d79b00;direction=west;" parent="1" vertex="1">
          <mxGeometry x="983.75" y="0.9900000000000002" width="28" height="120" as="geometry" />
        </mxCell>
        <mxCell id="F-M7a3G-75QDVNxdtMYs-86" value="&lt;b style=&quot;border-color: var(--border-color);&quot;&gt;&lt;font style=&quot;border-color: var(--border-color); font-size: 17px;&quot;&gt;&lt;i style=&quot;border-color: var(--border-color); font-size: 12px;&quot;&gt;Stack&lt;/i&gt;&lt;/font&gt;&lt;/b&gt;" style="text;html=1;strokeColor=none;fillColor=none;align=center;verticalAlign=middle;whiteSpace=wrap;rounded=0;" parent="1" vertex="1">
          <mxGeometry x="967.75" y="47.00000000000006" width="60" height="27.39" as="geometry" />
        </mxCell>
        <mxCell id="F-M7a3G-75QDVNxdtMYs-87" value="&lt;font style=&quot;font-size: 7px;&quot;&gt;0000 0400 h&lt;/font&gt;" style="text;html=1;strokeColor=none;fillColor=none;align=center;verticalAlign=middle;whiteSpace=wrap;rounded=0;" parent="1" vertex="1">
          <mxGeometry x="878.5" y="17.25" width="71" height="11.75" as="geometry" />
        </mxCell>
        <mxCell id="F-M7a3G-75QDVNxdtMYs-90" value="" style="endArrow=none;html=1;rounded=0;entryX=-0.002;entryY=-0.037;entryDx=0;entryDy=0;entryPerimeter=0;dashed=1;" parent="1" target="F-M7a3G-75QDVNxdtMYs-83" edge="1">
          <mxGeometry width="50" height="50" relative="1" as="geometry">
            <mxPoint x="1316" y="156.85" as="sourcePoint" />
            <mxPoint x="1366" y="106.85" as="targetPoint" />
          </mxGeometry>
        </mxCell>
        <mxCell id="F-M7a3G-75QDVNxdtMYs-91" value="" style="endArrow=none;html=1;rounded=0;entryX=0.008;entryY=1.016;entryDx=0;entryDy=0;entryPerimeter=0;dashed=1;" parent="1" target="F-M7a3G-75QDVNxdtMYs-73" edge="1">
          <mxGeometry width="50" height="50" relative="1" as="geometry">
            <mxPoint x="1316" y="175.20000000000002" as="sourcePoint" />
            <mxPoint x="1384" y="79.20000000000002" as="targetPoint" />
          </mxGeometry>
        </mxCell>
        <mxCell id="wK4yyW2enQjn8KItqj0e-9" value="" style="group;" parent="1" vertex="1" connectable="0">
          <mxGeometry x="317.47" y="-350" width="99.78" height="80" as="geometry" />
        </mxCell>
        <mxCell id="qAb7J1Sq0SyKObhztgn9-169" value="" style="rounded=1;whiteSpace=wrap;html=1;fillColor=#fff2cc;strokeColor=#d6b656;" parent="wK4yyW2enQjn8KItqj0e-9" vertex="1">
          <mxGeometry x="0.6244466403162678" width="99.15555335968375" height="80" as="geometry" />
        </mxCell>
        <mxCell id="qAb7J1Sq0SyKObhztgn9-170" value="&lt;font&gt;&lt;font style=&quot;font-size: 10px;&quot;&gt;Program Counter&lt;/font&gt;&lt;br&gt;&lt;/font&gt;" style="text;html=1;align=center;verticalAlign=middle;whiteSpace=wrap;rounded=0;" parent="wK4yyW2enQjn8KItqj0e-9" vertex="1">
          <mxGeometry x="0.6244466403162678" width="99.15555335968375" height="20" as="geometry" />
        </mxCell>
        <mxCell id="qAb7J1Sq0SyKObhztgn9-173" value="" style="triangle;whiteSpace=wrap;html=1;fillColor=#fff2cc;strokeColor=#d6b656;" parent="wK4yyW2enQjn8KItqj0e-9" vertex="1">
          <mxGeometry x="1.0352667984189718" y="54" width="6.162302371541499" height="16" as="geometry" />
        </mxCell>
        <mxCell id="qAb7J1Sq0SyKObhztgn9-174" value="&lt;font style=&quot;font-size: 8px;&quot;&gt;clk&lt;br&gt;&lt;/font&gt;" style="text;html=1;align=center;verticalAlign=middle;whiteSpace=wrap;rounded=0;" parent="wK4yyW2enQjn8KItqj0e-9" vertex="1">
          <mxGeometry x="6.5238241106719785" y="52.99999999999993" width="12.58752964426877" height="12.98" as="geometry" />
        </mxCell>
        <mxCell id="qAb7J1Sq0SyKObhztgn9-175" value="&lt;span style=&quot;font-size: 8px;&quot;&gt;PC_load&lt;/span&gt;" style="text;html=1;align=center;verticalAlign=middle;whiteSpace=wrap;rounded=0;" parent="wK4yyW2enQjn8KItqj0e-9" vertex="1">
          <mxGeometry x="8.78674901185779" y="29.999999999999986" width="16.432806324110665" height="10" as="geometry" />
        </mxCell>
        <mxCell id="qAb7J1Sq0SyKObhztgn9-178" value="&lt;span style=&quot;font-size: 8px;&quot;&gt;PC_in&lt;/span&gt;" style="text;html=1;align=center;verticalAlign=middle;whiteSpace=wrap;rounded=0;" parent="wK4yyW2enQjn8KItqj0e-9" vertex="1">
          <mxGeometry x="5.089367588932891" y="18.999999999999986" width="16.432806324110665" height="10" as="geometry" />
        </mxCell>
        <mxCell id="qAb7J1Sq0SyKObhztgn9-183" value="&lt;font style=&quot;font-size: 8px;&quot;&gt;rst&lt;br&gt;&lt;/font&gt;" style="text;html=1;align=center;verticalAlign=middle;whiteSpace=wrap;rounded=0;" parent="wK4yyW2enQjn8KItqj0e-9" vertex="1">
          <mxGeometry y="40.01999999999997" width="12.58752964426877" height="12.98" as="geometry" />
        </mxCell>
        <mxCell id="qAb7J1Sq0SyKObhztgn9-184" value="&lt;span style=&quot;font-size: 8px;&quot;&gt;PC_out&lt;/span&gt;" style="text;html=1;align=center;verticalAlign=middle;whiteSpace=wrap;rounded=0;" parent="wK4yyW2enQjn8KItqj0e-9" vertex="1">
          <mxGeometry x="76.74360671936756" y="39.999999999999986" width="16.432806324110665" height="10" as="geometry" />
        </mxCell>
        <mxCell id="wK4yyW2enQjn8KItqj0e-8" value="" style="endArrow=none;html=1;rounded=0;fontFamily=Helvetica;fontSize=12;fontColor=default;exitX=0;exitY=0.75;exitDx=0;exitDy=0;entryX=1;entryY=0.75;entryDx=0;entryDy=0;fillColor=#fff2cc;strokeColor=#d6b656;" parent="wK4yyW2enQjn8KItqj0e-9" edge="1">
          <mxGeometry width="50" height="50" relative="1" as="geometry">
            <mxPoint x="0.6244466403162912" y="18.000000000000227" as="sourcePoint" />
            <mxPoint x="99.78" y="18.000000000000227" as="targetPoint" />
          </mxGeometry>
        </mxCell>
        <mxCell id="wK4yyW2enQjn8KItqj0e-16" value="" style="group" parent="1" vertex="1" connectable="0">
          <mxGeometry x="821" y="-428" width="95.41999999999996" height="140" as="geometry" />
        </mxCell>
        <mxCell id="qAb7J1Sq0SyKObhztgn9-12" value="" style="rounded=1;whiteSpace=wrap;html=1;rotation=90;fillColor=#d5e8d4;strokeColor=#82b366;" parent="wK4yyW2enQjn8KItqj0e-16" vertex="1">
          <mxGeometry x="-19.58000000000004" y="25" width="140" height="90" as="geometry" />
        </mxCell>
        <mxCell id="qAb7J1Sq0SyKObhztgn9-13" value="&lt;font&gt;&lt;span style=&quot;font-size: 11px;&quot;&gt;Register File&lt;/span&gt;&lt;br&gt;&lt;font style=&quot;font-size: 8px;&quot;&gt;32 X 32 bits&lt;/font&gt;&lt;/font&gt;" style="text;html=1;strokeColor=none;fillColor=none;align=center;verticalAlign=middle;whiteSpace=wrap;rounded=0;" parent="wK4yyW2enQjn8KItqj0e-16" vertex="1">
          <mxGeometry x="5.419999999999959" width="90" height="30" as="geometry" />
        </mxCell>
        <mxCell id="qAb7J1Sq0SyKObhztgn9-14" value="" style="triangle;whiteSpace=wrap;html=1;fillColor=#d5e8d4;strokeColor=#82b366;" parent="wK4yyW2enQjn8KItqj0e-16" vertex="1">
          <mxGeometry x="5.420000000000073" y="116.43" width="7.5" height="8.85" as="geometry" />
        </mxCell>
        <mxCell id="qAb7J1Sq0SyKObhztgn9-21" value="&lt;font style=&quot;font-size: 8px;&quot;&gt;r1_addr&lt;/font&gt;" style="text;html=1;strokeColor=none;fillColor=none;align=center;verticalAlign=middle;whiteSpace=wrap;rounded=0;" parent="wK4yyW2enQjn8KItqj0e-16" vertex="1">
          <mxGeometry x="10" y="30.33" width="22.35" height="12.98" as="geometry" />
        </mxCell>
        <mxCell id="qAb7J1Sq0SyKObhztgn9-22" value="&lt;font style=&quot;font-size: 8px;&quot;&gt;r2_addr&lt;/font&gt;" style="text;html=1;strokeColor=none;fillColor=none;align=center;verticalAlign=middle;whiteSpace=wrap;rounded=0;" parent="wK4yyW2enQjn8KItqj0e-16" vertex="1">
          <mxGeometry x="7.389999999999986" y="45" width="27.03" height="12.98" as="geometry" />
        </mxCell>
        <mxCell id="qAb7J1Sq0SyKObhztgn9-23" value="&lt;font style=&quot;font-size: 8px;&quot;&gt;clk&lt;br&gt;&lt;/font&gt;" style="text;html=1;strokeColor=none;fillColor=none;align=center;verticalAlign=middle;whiteSpace=wrap;rounded=0;" parent="wK4yyW2enQjn8KItqj0e-16" vertex="1">
          <mxGeometry x="12.07000000000005" y="112.75000000000006" width="14.85" height="12.98" as="geometry" />
        </mxCell>
        <mxCell id="qAb7J1Sq0SyKObhztgn9-24" value="&lt;font style=&quot;font-size: 8px;&quot;&gt;w_addr&lt;/font&gt;" style="text;html=1;strokeColor=none;fillColor=none;align=center;verticalAlign=middle;whiteSpace=wrap;rounded=0;" parent="wK4yyW2enQjn8KItqj0e-16" vertex="1">
          <mxGeometry x="4.420000000000073" y="73.44000000000005" width="33.5" height="12.98" as="geometry" />
        </mxCell>
        <mxCell id="qAb7J1Sq0SyKObhztgn9-25" value="&lt;span style=&quot;font-size: 8px;&quot;&gt;data_in&lt;/span&gt;" style="text;html=1;strokeColor=none;fillColor=none;align=center;verticalAlign=middle;whiteSpace=wrap;rounded=0;" parent="wK4yyW2enQjn8KItqj0e-16" vertex="1">
          <mxGeometry x="4.420000000000073" y="59.50000000000006" width="31.53" height="12.98" as="geometry" />
        </mxCell>
        <mxCell id="qAb7J1Sq0SyKObhztgn9-26" value="&lt;span style=&quot;font-size: 8px;&quot;&gt;we&lt;/span&gt;" style="text;html=1;strokeColor=none;fillColor=none;align=center;verticalAlign=middle;whiteSpace=wrap;rounded=0;" parent="wK4yyW2enQjn8KItqj0e-16" vertex="1">
          <mxGeometry x="3.419999999999959" y="89" width="20" height="10" as="geometry" />
        </mxCell>
        <mxCell id="qAb7J1Sq0SyKObhztgn9-27" value="&lt;span style=&quot;font-size: 8px;&quot;&gt;r1_out&lt;/span&gt;" style="text;html=1;strokeColor=none;fillColor=none;align=center;verticalAlign=middle;whiteSpace=wrap;rounded=0;" parent="wK4yyW2enQjn8KItqj0e-16" vertex="1">
          <mxGeometry x="65.42" y="57.98" width="28.58" height="12.98" as="geometry" />
        </mxCell>
        <mxCell id="qAb7J1Sq0SyKObhztgn9-28" value="&lt;span style=&quot;font-size: 8px;&quot;&gt;r2_out&lt;/span&gt;" style="text;html=1;strokeColor=none;fillColor=none;align=center;verticalAlign=middle;whiteSpace=wrap;rounded=0;" parent="wK4yyW2enQjn8KItqj0e-16" vertex="1">
          <mxGeometry x="65.42" y="84.02" width="28.58" height="12.98" as="geometry" />
        </mxCell>
        <mxCell id="qAb7J1Sq0SyKObhztgn9-192" value="&lt;span style=&quot;font-size: 8px;&quot;&gt;rst&lt;/span&gt;" style="text;html=1;strokeColor=none;fillColor=none;align=center;verticalAlign=middle;whiteSpace=wrap;rounded=0;" parent="wK4yyW2enQjn8KItqj0e-16" vertex="1">
          <mxGeometry x="2.419999999999959" y="102.75" width="20" height="10" as="geometry" />
        </mxCell>
        <mxCell id="wK4yyW2enQjn8KItqj0e-15" value="" style="endArrow=none;html=1;rounded=0;fontFamily=Helvetica;fontSize=12;fontColor=default;exitX=0.092;exitY=-0.003;exitDx=0;exitDy=0;exitPerimeter=0;entryX=1;entryY=1;entryDx=0;entryDy=0;fillColor=#d5e8d4;strokeColor=#82b366;" parent="wK4yyW2enQjn8KItqj0e-16" target="qAb7J1Sq0SyKObhztgn9-13" edge="1">
          <mxGeometry width="50" height="50" relative="1" as="geometry">
            <mxPoint x="5.896200000000135" y="30.291059999999845" as="sourcePoint" />
            <mxPoint x="95.62" y="30.52000000000004" as="targetPoint" />
          </mxGeometry>
        </mxCell>
        <mxCell id="wK4yyW2enQjn8KItqj0e-23" value="" style="group;rotation=0;" parent="1" vertex="1" connectable="0">
          <mxGeometry x="450.54" y="-445" width="37.96" height="51" as="geometry" />
        </mxCell>
        <mxCell id="wK4yyW2enQjn8KItqj0e-21" value="" style="shape=stencil(tZXRjoIwEEW/pq+bQsPq6wb1PyqOS2NtSdvV3b93oGCs0I0IJISkc7mHIb1DCcttySsgKS0J25A0TSjFO66vT2tuKyicL164EXwvwSvWGX2Cqzi4liFUCUa4WmVbQr/wmfpieaGVQojQygbKg44wLhR66a+Hta//C1YV8s/gwLRNNtXd68yPbAFqskSnIbPre95OZ6KGvSaL7NQ81ORNJsuxEgsxy/e8OH0b/aMOfVdUO2oDA8JdFlL6AYt9YMXruesJnXzWF/h/moawnVsK9eC+/wxaP5sKWI0FPGWMTvOvx9qz0P+ZTfOzsf7Q/sL+FVLbaHKwHgkPHguDmWs8vcQ2VX+ONIUb);whiteSpace=wrap;html=1;rounded=0;strokeColor=#d6b656;align=center;verticalAlign=middle;fontFamily=Helvetica;fontSize=12;fillColor=none;rotation=0;" parent="wK4yyW2enQjn8KItqj0e-23" vertex="1">
          <mxGeometry y="-7" width="32.76477481416703" height="51.00000000000001" as="geometry" />
        </mxCell>
        <mxCell id="wK4yyW2enQjn8KItqj0e-22" value="&lt;font size=&quot;1&quot; style=&quot;&quot;&gt;&lt;b style=&quot;font-size: 13px;&quot;&gt;ADD&lt;/b&gt;&lt;/font&gt;" style="text;html=1;strokeColor=none;fillColor=none;align=center;verticalAlign=middle;whiteSpace=wrap;rounded=0;rotation=-90;" parent="wK4yyW2enQjn8KItqj0e-23" vertex="1">
          <mxGeometry x="7.9588981198076105" y="11.485714285714284" width="28.996991692173154" height="13.872" as="geometry" />
        </mxCell>
        <mxCell id="wK4yyW2enQjn8KItqj0e-26" value="" style="group" parent="1" vertex="1" connectable="0">
          <mxGeometry x="470.56" y="-341" width="96.29999999999995" height="112.75999999999999" as="geometry" />
        </mxCell>
        <mxCell id="qAb7J1Sq0SyKObhztgn9-193" value="" style="rounded=1;whiteSpace=wrap;html=1;rotation=90;fillColor=#fff2cc;strokeColor=#d6b656;" parent="wK4yyW2enQjn8KItqj0e-26" vertex="1">
          <mxGeometry x="-5.539999999999964" y="11.5" width="112.52" height="90" as="geometry" />
        </mxCell>
        <mxCell id="qAb7J1Sq0SyKObhztgn9-194" value="&lt;font&gt;&lt;span style=&quot;font-size: 11px;&quot;&gt;Code Memory&lt;/span&gt;&lt;br&gt;&lt;font style=&quot;font-size: 8px;&quot;&gt;4096 X 32 bits&lt;/font&gt;&lt;/font&gt;" style="text;html=1;strokeColor=none;fillColor=none;align=center;verticalAlign=middle;whiteSpace=wrap;rounded=0;" parent="wK4yyW2enQjn8KItqj0e-26" vertex="1">
          <mxGeometry x="6.2999999999999545" width="90" height="30" as="geometry" />
        </mxCell>
        <mxCell id="qAb7J1Sq0SyKObhztgn9-195" value="" style="triangle;whiteSpace=wrap;html=1;fillColor=#fff2cc;strokeColor=#d6b656;" parent="wK4yyW2enQjn8KItqj0e-26" vertex="1">
          <mxGeometry x="6.2999999999999545" y="85" width="7.5" height="15" as="geometry" />
        </mxCell>
        <mxCell id="qAb7J1Sq0SyKObhztgn9-202" value="&lt;font style=&quot;font-size: 8px;&quot;&gt;address&lt;/font&gt;" style="text;html=1;strokeColor=none;fillColor=none;align=center;verticalAlign=middle;whiteSpace=wrap;rounded=0;" parent="wK4yyW2enQjn8KItqj0e-26" vertex="1">
          <mxGeometry x="6" y="31" width="32.3" height="12.98" as="geometry" />
        </mxCell>
        <mxCell id="qAb7J1Sq0SyKObhztgn9-204" value="&lt;font style=&quot;font-size: 8px;&quot;&gt;clk&lt;br&gt;&lt;/font&gt;" style="text;html=1;strokeColor=none;fillColor=none;align=center;verticalAlign=middle;whiteSpace=wrap;rounded=0;" parent="wK4yyW2enQjn8KItqj0e-26" vertex="1">
          <mxGeometry x="15" y="85" width="9.8" height="12.98" as="geometry" />
        </mxCell>
        <mxCell id="qAb7J1Sq0SyKObhztgn9-205" value="&lt;font style=&quot;font-size: 8px;&quot;&gt;data_in&lt;/font&gt;" style="text;html=1;strokeColor=none;fillColor=none;align=center;verticalAlign=middle;whiteSpace=wrap;rounded=0;" parent="wK4yyW2enQjn8KItqj0e-26" vertex="1">
          <mxGeometry x="2.840000000000032" y="43.97999999999999" width="36" height="12.98" as="geometry" />
        </mxCell>
        <mxCell id="qAb7J1Sq0SyKObhztgn9-207" value="&lt;span style=&quot;font-size: 8px;&quot;&gt;we&lt;/span&gt;" style="text;html=1;strokeColor=none;fillColor=none;align=center;verticalAlign=middle;whiteSpace=wrap;rounded=0;" parent="wK4yyW2enQjn8KItqj0e-26" vertex="1">
          <mxGeometry x="4.2999999999999545" y="57" width="20" height="10" as="geometry" />
        </mxCell>
        <mxCell id="qAb7J1Sq0SyKObhztgn9-208" value="&lt;span style=&quot;font-size: 8px;&quot;&gt;data_out&lt;/span&gt;" style="text;html=1;strokeColor=none;fillColor=none;align=center;verticalAlign=middle;whiteSpace=wrap;rounded=0;" parent="wK4yyW2enQjn8KItqj0e-26" vertex="1">
          <mxGeometry x="62.299999999999955" y="58.98000000000002" width="30" height="12.98" as="geometry" />
        </mxCell>
        <mxCell id="qAb7J1Sq0SyKObhztgn9-211" value="&lt;span style=&quot;font-size: 8px;&quot;&gt;rst&lt;/span&gt;" style="text;html=1;strokeColor=none;fillColor=none;align=center;verticalAlign=middle;whiteSpace=wrap;rounded=0;" parent="wK4yyW2enQjn8KItqj0e-26" vertex="1">
          <mxGeometry x="3.2999999999999545" y="69.75" width="20" height="10" as="geometry" />
        </mxCell>
        <mxCell id="wK4yyW2enQjn8KItqj0e-2" value="" style="endArrow=none;html=1;rounded=0;fontFamily=Helvetica;fontSize=12;fontColor=default;exitX=0;exitY=1;exitDx=0;exitDy=0;entryX=1;entryY=1;entryDx=0;entryDy=0;fillColor=#fff2cc;strokeColor=#d6b656;" parent="wK4yyW2enQjn8KItqj0e-26" edge="1">
          <mxGeometry width="50" height="50" relative="1" as="geometry">
            <mxPoint x="5.2999999999999545" y="30" as="sourcePoint" />
            <mxPoint x="95.29999999999995" y="30" as="targetPoint" />
          </mxGeometry>
        </mxCell>
        <mxCell id="wK4yyW2enQjn8KItqj0e-36" value="" style="endArrow=classicThin;html=1;rounded=0;fontFamily=Helvetica;fontSize=12;fontColor=default;endFill=1;exitX=0.905;exitY=0.528;exitDx=0;exitDy=0;exitPerimeter=0;" parent="1" source="wK4yyW2enQjn8KItqj0e-37" edge="1">
          <mxGeometry width="50" height="50" relative="1" as="geometry">
            <mxPoint x="441.5" y="-447" as="sourcePoint" />
            <mxPoint x="450.54" y="-447" as="targetPoint" />
          </mxGeometry>
        </mxCell>
        <mxCell id="wK4yyW2enQjn8KItqj0e-37" value="1" style="text;html=1;align=center;verticalAlign=middle;whiteSpace=wrap;rounded=0;fontFamily=Helvetica;fontSize=12;fontColor=default;" parent="1" vertex="1">
          <mxGeometry x="429.58" y="-455" width="9.92" height="15" as="geometry" />
        </mxCell>
        <mxCell id="wK4yyW2enQjn8KItqj0e-39" value="Mux" style="shadow=0;dashed=0;align=center;html=1;strokeWidth=1;shape=mxgraph.electrical.abstract.mux2;whiteSpace=wrap;rounded=0;verticalAlign=middle;fontFamily=Helvetica;fontSize=12;selectorPins=2;fillColor=#fff2cc;strokeColor=#d6b656;" parent="1" vertex="1">
          <mxGeometry x="512.03" y="-478" width="47.47" height="71" as="geometry" />
        </mxCell>
        <mxCell id="wK4yyW2enQjn8KItqj0e-42" value="" style="endArrow=none;html=1;rounded=0;fontFamily=Helvetica;fontSize=12;fontColor=default;strokeColor=#009900;" parent="1" edge="1">
          <mxGeometry width="50" height="50" relative="1" as="geometry">
            <mxPoint x="288" y="-314.25" as="sourcePoint" />
            <mxPoint x="318" y="-314.25" as="targetPoint" />
          </mxGeometry>
        </mxCell>
        <mxCell id="wK4yyW2enQjn8KItqj0e-43" value="" style="endArrow=none;html=1;rounded=0;fontFamily=Helvetica;fontSize=12;fontColor=default;strokeColor=#009900;" parent="1" edge="1">
          <mxGeometry width="50" height="50" relative="1" as="geometry">
            <mxPoint x="288" y="-301.25" as="sourcePoint" />
            <mxPoint x="318" y="-301.25" as="targetPoint" />
          </mxGeometry>
        </mxCell>
        <mxCell id="wK4yyW2enQjn8KItqj0e-44" value="" style="endArrow=none;html=1;rounded=0;fontFamily=Helvetica;fontSize=12;fontColor=default;strokeColor=#009900;" parent="1" edge="1">
          <mxGeometry width="50" height="50" relative="1" as="geometry">
            <mxPoint x="289" y="-288.25" as="sourcePoint" />
            <mxPoint x="319" y="-288.25" as="targetPoint" />
          </mxGeometry>
        </mxCell>
        <mxCell id="wK4yyW2enQjn8KItqj0e-47" value="" style="endArrow=none;html=1;rounded=0;fontFamily=Helvetica;fontSize=12;fontColor=default;entryX=-0.026;entryY=0.927;entryDx=0;entryDy=0;entryPerimeter=0;startArrow=classicThin;startFill=1;exitX=-0.007;exitY=0.901;exitDx=0;exitDy=0;exitPerimeter=0;" parent="1" source="wK4yyW2enQjn8KItqj0e-21" edge="1">
          <mxGeometry width="50" height="50" relative="1" as="geometry">
            <mxPoint x="450.5135200000002" y="-399.11" as="sourcePoint" />
            <mxPoint x="432.5" y="-304" as="targetPoint" />
            <Array as="points">
              <mxPoint x="432.5" y="-406" />
            </Array>
          </mxGeometry>
        </mxCell>
        <mxCell id="wK4yyW2enQjn8KItqj0e-48" value="" style="endArrow=classicThin;html=1;rounded=0;fontFamily=Helvetica;fontSize=12;fontColor=default;entryX=0.201;entryY=0.725;entryDx=0;entryDy=0;entryPerimeter=0;exitX=1;exitY=0.5;exitDx=0;exitDy=0;endFill=1;" parent="1" source="wK4yyW2enQjn8KItqj0e-21" target="wK4yyW2enQjn8KItqj0e-39" edge="1">
          <mxGeometry width="50" height="50" relative="1" as="geometry">
            <mxPoint x="461.5" y="-450" as="sourcePoint" />
            <mxPoint x="511.5" y="-500" as="targetPoint" />
          </mxGeometry>
        </mxCell>
        <mxCell id="wK4yyW2enQjn8KItqj0e-51" value="" style="rounded=1;whiteSpace=wrap;html=1;strokeColor=#d79b00;align=center;verticalAlign=middle;fontFamily=Helvetica;fontSize=12;fillColor=#ffe6cc;rotation=90;" parent="1" vertex="1">
          <mxGeometry x="367.13" y="-359.93" width="500.8" height="30" as="geometry" />
        </mxCell>
        <mxCell id="wK4yyW2enQjn8KItqj0e-52" value="IF/ID" style="text;html=1;align=center;verticalAlign=middle;whiteSpace=wrap;rounded=0;fontFamily=Helvetica;fontSize=12;fontColor=default;" parent="1" vertex="1">
          <mxGeometry x="601" y="-621" width="33" height="30" as="geometry" />
        </mxCell>
        <mxCell id="wK4yyW2enQjn8KItqj0e-55" style="edgeStyle=orthogonalEdgeStyle;rounded=0;orthogonalLoop=1;jettySize=auto;html=1;entryX=0.638;entryY=0.978;entryDx=0;entryDy=0;entryPerimeter=0;fontFamily=Helvetica;fontSize=12;fontColor=default;endArrow=classicThin;endFill=1;exitX=0.58;exitY=0.003;exitDx=0;exitDy=0;exitPerimeter=0;" parent="1" source="qAb7J1Sq0SyKObhztgn9-193" target="wK4yyW2enQjn8KItqj0e-51" edge="1">
          <mxGeometry relative="1" as="geometry" />
        </mxCell>
        <mxCell id="wK4yyW2enQjn8KItqj0e-27" value="" style="endArrow=none;html=1;rounded=0;fontFamily=Helvetica;fontSize=12;fontColor=default;exitX=0;exitY=0.5;exitDx=0;exitDy=0;entryX=0.998;entryY=0.579;entryDx=0;entryDy=0;startArrow=classicThin;startFill=1;entryPerimeter=0;endFill=0;" parent="1" source="qAb7J1Sq0SyKObhztgn9-202" target="qAb7J1Sq0SyKObhztgn9-169" edge="1">
          <mxGeometry width="50" height="50" relative="1" as="geometry">
            <mxPoint x="460.56" y="-290" as="sourcePoint" />
            <mxPoint x="358.4659111264822" y="-290" as="targetPoint" />
          </mxGeometry>
        </mxCell>
        <mxCell id="wK4yyW2enQjn8KItqj0e-49" value="" style="endArrow=none;html=1;rounded=0;fontFamily=Helvetica;fontSize=12;fontColor=default;exitX=-0.013;exitY=0.313;exitDx=0;exitDy=0;exitPerimeter=0;entryX=0.799;entryY=0.432;entryDx=0;entryDy=0;entryPerimeter=0;startArrow=classicThin;startFill=1;" parent="1" source="qAb7J1Sq0SyKObhztgn9-169" target="wK4yyW2enQjn8KItqj0e-39" edge="1">
          <mxGeometry width="50" height="50" relative="1" as="geometry">
            <mxPoint x="651.5" y="-530" as="sourcePoint" />
            <mxPoint x="601.5" y="-480" as="targetPoint" />
            <Array as="points">
              <mxPoint x="291.5" y="-325" />
              <mxPoint x="291.5" y="-495" />
              <mxPoint x="573.5" y="-495" />
              <mxPoint x="574" y="-448" />
            </Array>
          </mxGeometry>
        </mxCell>
        <mxCell id="wK4yyW2enQjn8KItqj0e-56" value="" style="endArrow=none;html=1;rounded=0;fontFamily=Helvetica;fontSize=12;fontColor=default;exitX=0.283;exitY=1.008;exitDx=0;exitDy=0;exitPerimeter=0;entryX=0.64;entryY=-0.036;entryDx=0;entryDy=0;entryPerimeter=0;startArrow=classicThin;startFill=1;" parent="1" source="qAb7J1Sq0SyKObhztgn9-12" target="wK4yyW2enQjn8KItqj0e-51" edge="1">
          <mxGeometry width="50" height="50" relative="1" as="geometry">
            <mxPoint x="720" y="-300" as="sourcePoint" />
            <mxPoint x="650" y="-280" as="targetPoint" />
            <Array as="points">
              <mxPoint x="660" y="-389" />
              <mxPoint x="660" y="-275" />
            </Array>
          </mxGeometry>
        </mxCell>
        <mxCell id="wK4yyW2enQjn8KItqj0e-58" value="&lt;font style=&quot;font-size: 10px;&quot;&gt;Sign Extend&lt;/font&gt;" style="ellipse;whiteSpace=wrap;html=1;rotation=0;fillColor=#d5e8d4;strokeColor=#82b366;" parent="1" vertex="1">
          <mxGeometry x="731" y="-269" width="39" height="48" as="geometry" />
        </mxCell>
        <mxCell id="wK4yyW2enQjn8KItqj0e-60" value="&lt;font style=&quot;font-size: 10px;&quot;&gt;Sign Extend&lt;/font&gt;" style="ellipse;whiteSpace=wrap;html=1;rotation=0;fillColor=#d5e8d4;strokeColor=#82b366;" parent="1" vertex="1">
          <mxGeometry x="765" y="-236" width="39" height="48" as="geometry" />
        </mxCell>
        <mxCell id="wK4yyW2enQjn8KItqj0e-110" style="edgeStyle=orthogonalEdgeStyle;rounded=0;orthogonalLoop=1;jettySize=auto;html=1;exitX=1;exitY=0.5;exitDx=0;exitDy=0;fontFamily=Helvetica;fontSize=12;fontColor=default;jumpStyle=arc;endArrow=classicThin;endFill=1;entryX=-0.026;entryY=0.912;entryDx=0;entryDy=0;entryPerimeter=0;" parent="1" source="wK4yyW2enQjn8KItqj0e-60" target="wK4yyW2enQjn8KItqj0e-83" edge="1">
          <mxGeometry relative="1" as="geometry">
            <mxPoint x="998" y="-392" as="targetPoint" />
            <Array as="points">
              <mxPoint x="993" y="-212" />
              <mxPoint x="993" y="-385" />
              <mxPoint x="999" y="-385" />
            </Array>
          </mxGeometry>
        </mxCell>
        <mxCell id="wK4yyW2enQjn8KItqj0e-61" value="&lt;font style=&quot;font-size: 10px;&quot;&gt;Sign Extend&lt;/font&gt;" style="ellipse;whiteSpace=wrap;html=1;rotation=0;fillColor=#d5e8d4;strokeColor=#82b366;" parent="1" vertex="1">
          <mxGeometry x="799" y="-198" width="39" height="48" as="geometry" />
        </mxCell>
        <mxCell id="wK4yyW2enQjn8KItqj0e-62" value="&lt;font style=&quot;font-size: 10px;&quot;&gt;Sign Extend&lt;/font&gt;" style="ellipse;whiteSpace=wrap;html=1;rotation=0;fillColor=#d5e8d4;strokeColor=#82b366;" parent="1" vertex="1">
          <mxGeometry x="838" y="-167" width="39" height="48" as="geometry" />
        </mxCell>
        <mxCell id="wK4yyW2enQjn8KItqj0e-63" value="" style="endArrow=none;html=1;rounded=0;fontFamily=Helvetica;fontSize=12;fontColor=default;" parent="1" edge="1">
          <mxGeometry width="50" height="50" relative="1" as="geometry">
            <mxPoint x="660" y="-275" as="sourcePoint" />
            <mxPoint x="660" y="-143" as="targetPoint" />
          </mxGeometry>
        </mxCell>
        <mxCell id="wK4yyW2enQjn8KItqj0e-65" value="" style="endArrow=classicThin;html=1;rounded=0;fontFamily=Helvetica;fontSize=12;fontColor=default;entryX=0.379;entryY=1.01;entryDx=0;entryDy=0;entryPerimeter=0;endFill=1;" parent="1" edge="1">
          <mxGeometry width="50" height="50" relative="1" as="geometry">
            <mxPoint x="660" y="-143" as="sourcePoint" />
            <mxPoint x="838" y="-143" as="targetPoint" />
          </mxGeometry>
        </mxCell>
        <mxCell id="wK4yyW2enQjn8KItqj0e-66" value="" style="endArrow=classicThin;html=1;rounded=0;fontFamily=Helvetica;fontSize=12;fontColor=default;entryX=0.379;entryY=1.01;entryDx=0;entryDy=0;entryPerimeter=0;endFill=1;" parent="1" edge="1">
          <mxGeometry width="50" height="50" relative="1" as="geometry">
            <mxPoint x="660" y="-174" as="sourcePoint" />
            <mxPoint x="799" y="-174" as="targetPoint" />
          </mxGeometry>
        </mxCell>
        <mxCell id="wK4yyW2enQjn8KItqj0e-67" value="" style="endArrow=classicThin;html=1;rounded=0;fontFamily=Helvetica;fontSize=12;fontColor=default;entryX=0.379;entryY=1.01;entryDx=0;entryDy=0;entryPerimeter=0;endFill=1;" parent="1" edge="1">
          <mxGeometry width="50" height="50" relative="1" as="geometry">
            <mxPoint x="660" y="-212" as="sourcePoint" />
            <mxPoint x="765" y="-212" as="targetPoint" />
          </mxGeometry>
        </mxCell>
        <mxCell id="wK4yyW2enQjn8KItqj0e-68" value="" style="endArrow=classicThin;html=1;rounded=0;fontFamily=Helvetica;fontSize=12;fontColor=default;entryX=0.379;entryY=1.01;entryDx=0;entryDy=0;entryPerimeter=0;endFill=1;" parent="1" edge="1">
          <mxGeometry width="50" height="50" relative="1" as="geometry">
            <mxPoint x="659" y="-245" as="sourcePoint" />
            <mxPoint x="731" y="-245" as="targetPoint" />
          </mxGeometry>
        </mxCell>
        <mxCell id="wK4yyW2enQjn8KItqj0e-69" value="&lt;font style=&quot;font-size: 10px;&quot;&gt;IR [15:0]&lt;/font&gt;" style="text;html=1;align=center;verticalAlign=middle;whiteSpace=wrap;rounded=0;fontFamily=Helvetica;fontSize=12;fontColor=default;" parent="1" vertex="1">
          <mxGeometry x="663" y="-260" width="41" height="16" as="geometry" />
        </mxCell>
        <mxCell id="wK4yyW2enQjn8KItqj0e-70" value="&lt;font style=&quot;font-size: 10px;&quot;&gt;IR [16:0]&lt;/font&gt;" style="text;html=1;align=center;verticalAlign=middle;whiteSpace=wrap;rounded=0;fontFamily=Helvetica;fontSize=12;fontColor=default;" parent="1" vertex="1">
          <mxGeometry x="662" y="-227.24" width="43" height="16" as="geometry" />
        </mxCell>
        <mxCell id="wK4yyW2enQjn8KItqj0e-71" value="&lt;font style=&quot;font-size: 10px;&quot;&gt;IR [22:0]&lt;/font&gt;" style="text;html=1;align=center;verticalAlign=middle;whiteSpace=wrap;rounded=0;fontFamily=Helvetica;fontSize=12;fontColor=default;" parent="1" vertex="1">
          <mxGeometry x="662" y="-189" width="43" height="16" as="geometry" />
        </mxCell>
        <mxCell id="wK4yyW2enQjn8KItqj0e-72" value="&lt;font style=&quot;font-size: 10px;&quot;&gt;IR [21:0]&lt;/font&gt;" style="text;html=1;align=center;verticalAlign=middle;whiteSpace=wrap;rounded=0;fontFamily=Helvetica;fontSize=12;fontColor=default;" parent="1" vertex="1">
          <mxGeometry x="662" y="-158" width="43" height="16" as="geometry" />
        </mxCell>
        <mxCell id="wK4yyW2enQjn8KItqj0e-73" value="&lt;font style=&quot;font-size: 10px;&quot;&gt;IR [21:17]&lt;/font&gt;" style="text;html=1;align=center;verticalAlign=middle;whiteSpace=wrap;rounded=0;fontFamily=Helvetica;fontSize=12;fontColor=default;" parent="1" vertex="1">
          <mxGeometry x="662" y="-404" width="47" height="16" as="geometry" />
        </mxCell>
        <mxCell id="wK4yyW2enQjn8KItqj0e-74" value="&lt;font style=&quot;font-size: 10px;&quot;&gt;IR [15:11]&lt;/font&gt;" style="text;html=1;align=center;verticalAlign=middle;whiteSpace=wrap;rounded=0;fontFamily=Helvetica;fontSize=12;fontColor=default;" parent="1" vertex="1">
          <mxGeometry x="662" y="-380" width="46" height="16" as="geometry" />
        </mxCell>
        <mxCell id="wK4yyW2enQjn8KItqj0e-75" value="Mux" style="shadow=0;dashed=0;align=center;html=1;strokeWidth=1;shape=mxgraph.electrical.abstract.mux2;whiteSpace=wrap;rounded=0;verticalAlign=middle;fontFamily=Helvetica;fontSize=12;selectorPins=1;fillColor=#d5e8d4;strokeColor=#82b366;" parent="1" vertex="1">
          <mxGeometry x="708" y="-380" width="46" height="63" as="geometry" />
        </mxCell>
        <mxCell id="wK4yyW2enQjn8KItqj0e-76" value="" style="endArrow=classicThin;html=1;rounded=0;fontFamily=Helvetica;fontSize=12;fontColor=default;exitX=0.786;exitY=0.421;exitDx=0;exitDy=0;exitPerimeter=0;entryX=0.38;entryY=1;entryDx=0;entryDy=0;entryPerimeter=0;endFill=1;" parent="1" source="wK4yyW2enQjn8KItqj0e-75" target="qAb7J1Sq0SyKObhztgn9-12" edge="1">
          <mxGeometry width="50" height="50" relative="1" as="geometry">
            <mxPoint x="765" y="-404" as="sourcePoint" />
            <mxPoint x="815" y="-454" as="targetPoint" />
            <Array as="points">
              <mxPoint x="754" y="-354" />
              <mxPoint x="754" y="-375" />
            </Array>
          </mxGeometry>
        </mxCell>
        <mxCell id="wK4yyW2enQjn8KItqj0e-77" value="" style="endArrow=classicThin;html=1;rounded=0;fontFamily=Helvetica;fontSize=12;fontColor=default;entryX=0.217;entryY=0.238;entryDx=0;entryDy=0;entryPerimeter=0;endFill=1;" parent="1" target="wK4yyW2enQjn8KItqj0e-75" edge="1">
          <mxGeometry width="50" height="50" relative="1" as="geometry">
            <mxPoint x="660" y="-365" as="sourcePoint" />
            <mxPoint x="711" y="-358" as="targetPoint" />
          </mxGeometry>
        </mxCell>
        <mxCell id="wK4yyW2enQjn8KItqj0e-78" value="" style="endArrow=classicThin;html=1;rounded=0;fontFamily=Helvetica;fontSize=12;fontColor=default;entryX=0.211;entryY=0.605;entryDx=0;entryDy=0;entryPerimeter=0;endFill=1;" parent="1" target="wK4yyW2enQjn8KItqj0e-75" edge="1">
          <mxGeometry width="50" height="50" relative="1" as="geometry">
            <mxPoint x="660" y="-342" as="sourcePoint" />
            <mxPoint x="708" y="-342" as="targetPoint" />
          </mxGeometry>
        </mxCell>
        <mxCell id="wK4yyW2enQjn8KItqj0e-79" value="&lt;font style=&quot;font-size: 10px;&quot;&gt;IR [26:22]&lt;/font&gt;" style="text;html=1;align=center;verticalAlign=middle;whiteSpace=wrap;rounded=0;fontFamily=Helvetica;fontSize=12;fontColor=default;" parent="1" vertex="1">
          <mxGeometry x="662" y="-357.5" width="48" height="14.5" as="geometry" />
        </mxCell>
        <mxCell id="wK4yyW2enQjn8KItqj0e-81" value="" style="endArrow=classicThin;html=1;rounded=0;fontFamily=Helvetica;fontSize=12;fontColor=default;endFill=1;" parent="1" edge="1">
          <mxGeometry width="50" height="50" relative="1" as="geometry">
            <mxPoint x="550" y="-447.62" as="sourcePoint" />
            <mxPoint x="601" y="-448" as="targetPoint" />
          </mxGeometry>
        </mxCell>
        <mxCell id="wK4yyW2enQjn8KItqj0e-82" value="" style="group;rotation=0;" parent="1" vertex="1" connectable="0">
          <mxGeometry x="1008" y="-420" width="27.74" height="38" as="geometry" />
        </mxCell>
        <mxCell id="wK4yyW2enQjn8KItqj0e-83" value="" style="shape=stencil(tZXRjoIwEEW/pq+bQsPq6wb1PyqOS2NtSdvV3b93oGCs0I0IJISkc7mHIb1DCcttySsgKS0J25A0TSjFO66vT2tuKyicL164EXwvwSvWGX2Cqzi4liFUCUa4WmVbQr/wmfpieaGVQojQygbKg44wLhR66a+Hta//C1YV8s/gwLRNNtXd68yPbAFqskSnIbPre95OZ6KGvSaL7NQ81ORNJsuxEgsxy/e8OH0b/aMOfVdUO2oDA8JdFlL6AYt9YMXruesJnXzWF/h/moawnVsK9eC+/wxaP5sKWI0FPGWMTvOvx9qz0P+ZTfOzsf7Q/sL+FVLbaHKwHgkPHguDmWs8vcQ2VX+ONIUb);whiteSpace=wrap;html=1;rounded=0;strokeColor=#82b366;align=center;verticalAlign=middle;fontFamily=Helvetica;fontSize=12;fillColor=#d5e8d4;rotation=0;" parent="wK4yyW2enQjn8KItqj0e-82" vertex="1">
          <mxGeometry width="23.943489287275906" height="38" as="geometry" />
        </mxCell>
        <mxCell id="wK4yyW2enQjn8KItqj0e-84" value="&lt;b style=&quot;border-color: var(--border-color); font-size: 8px;&quot;&gt;ADD&lt;/b&gt;" style="text;html=1;strokeColor=none;fillColor=none;align=center;verticalAlign=middle;whiteSpace=wrap;rounded=0;rotation=-90;" parent="wK4yyW2enQjn8KItqj0e-82" vertex="1">
          <mxGeometry x="7.277656318320946" y="13.028571428571428" width="21.190109313511154" height="10.335999999999997" as="geometry" />
        </mxCell>
        <mxCell id="wK4yyW2enQjn8KItqj0e-87" value="" style="rounded=1;whiteSpace=wrap;html=1;strokeColor=#d79b00;align=center;verticalAlign=middle;fontFamily=Helvetica;fontSize=12;fillColor=#ffe6cc;rotation=90;" parent="1" vertex="1">
          <mxGeometry x="829.83" y="-358.83" width="501" height="30" as="geometry" />
        </mxCell>
        <mxCell id="wK4yyW2enQjn8KItqj0e-88" value="ID/EX" style="text;html=1;align=center;verticalAlign=middle;whiteSpace=wrap;rounded=0;fontFamily=Helvetica;fontSize=12;fontColor=default;" parent="1" vertex="1">
          <mxGeometry x="1065" y="-620" width="33" height="30" as="geometry" />
        </mxCell>
        <mxCell id="wK4yyW2enQjn8KItqj0e-90" value="" style="endArrow=classicThin;html=1;rounded=0;fontFamily=Helvetica;fontSize=12;fontColor=default;exitX=0.477;exitY=0.006;exitDx=0;exitDy=0;exitPerimeter=0;endFill=1;jumpStyle=arc;" parent="1" source="qAb7J1Sq0SyKObhztgn9-12" edge="1">
          <mxGeometry width="50" height="50" relative="1" as="geometry">
            <mxPoint x="961" y="-329" as="sourcePoint" />
            <mxPoint x="1063" y="-362" as="targetPoint" />
          </mxGeometry>
        </mxCell>
        <mxCell id="wK4yyW2enQjn8KItqj0e-91" value="" style="endArrow=classicThin;html=1;rounded=0;fontFamily=Helvetica;fontSize=12;fontColor=default;exitX=0.477;exitY=0.006;exitDx=0;exitDy=0;exitPerimeter=0;endFill=1;jumpStyle=arc;" parent="1" edge="1">
          <mxGeometry width="50" height="50" relative="1" as="geometry">
            <mxPoint x="916.42" y="-335" as="sourcePoint" />
            <mxPoint x="1063" y="-335" as="targetPoint" />
          </mxGeometry>
        </mxCell>
        <mxCell id="wK4yyW2enQjn8KItqj0e-92" style="edgeStyle=orthogonalEdgeStyle;rounded=0;orthogonalLoop=1;jettySize=auto;html=1;entryX=0.879;entryY=1.035;entryDx=0;entryDy=0;entryPerimeter=0;fontFamily=Helvetica;fontSize=12;fontColor=default;endArrow=classicThin;endFill=1;" parent="1" edge="1">
          <mxGeometry relative="1" as="geometry">
            <mxPoint x="878" y="-144" as="sourcePoint" />
            <mxPoint x="1064.9999999999998" y="-143.58785999999986" as="targetPoint" />
          </mxGeometry>
        </mxCell>
        <mxCell id="wK4yyW2enQjn8KItqj0e-101" value="" style="group;rotation=0;" parent="1" vertex="1" connectable="0">
          <mxGeometry x="1008" y="-472" width="27.74" height="38" as="geometry" />
        </mxCell>
        <mxCell id="wK4yyW2enQjn8KItqj0e-124" style="edgeStyle=orthogonalEdgeStyle;rounded=0;orthogonalLoop=1;jettySize=auto;html=1;exitX=1;exitY=0.5;exitDx=0;exitDy=0;fontFamily=Helvetica;fontSize=12;fontColor=default;" parent="wK4yyW2enQjn8KItqj0e-101" source="wK4yyW2enQjn8KItqj0e-102" edge="1">
          <mxGeometry relative="1" as="geometry">
            <mxPoint x="55" y="18.80952380952374" as="targetPoint" />
          </mxGeometry>
        </mxCell>
        <mxCell id="wK4yyW2enQjn8KItqj0e-102" value="" style="shape=stencil(tZXRjoIwEEW/pq+bQsPq6wb1PyqOS2NtSdvV3b93oGCs0I0IJISkc7mHIb1DCcttySsgKS0J25A0TSjFO66vT2tuKyicL164EXwvwSvWGX2Cqzi4liFUCUa4WmVbQr/wmfpieaGVQojQygbKg44wLhR66a+Hta//C1YV8s/gwLRNNtXd68yPbAFqskSnIbPre95OZ6KGvSaL7NQ81ORNJsuxEgsxy/e8OH0b/aMOfVdUO2oDA8JdFlL6AYt9YMXruesJnXzWF/h/moawnVsK9eC+/wxaP5sKWI0FPGWMTvOvx9qz0P+ZTfOzsf7Q/sL+FVLbaHKwHgkPHguDmWs8vcQ2VX+ONIUb);whiteSpace=wrap;html=1;rounded=0;strokeColor=#82b366;align=center;verticalAlign=middle;fontFamily=Helvetica;fontSize=12;fillColor=#d5e8d4;rotation=0;" parent="wK4yyW2enQjn8KItqj0e-101" vertex="1">
          <mxGeometry width="23.943489287275906" height="38" as="geometry" />
        </mxCell>
        <mxCell id="wK4yyW2enQjn8KItqj0e-103" value="&lt;font size=&quot;1&quot; style=&quot;&quot;&gt;&lt;b style=&quot;font-size: 8px;&quot;&gt;ADD&lt;/b&gt;&lt;/font&gt;" style="text;html=1;strokeColor=none;fillColor=none;align=center;verticalAlign=middle;whiteSpace=wrap;rounded=0;rotation=-90;" parent="wK4yyW2enQjn8KItqj0e-101" vertex="1">
          <mxGeometry x="7.277656318320946" y="13.028571428571428" width="21.190109313511154" height="10.335999999999997" as="geometry" />
        </mxCell>
        <mxCell id="wK4yyW2enQjn8KItqj0e-104" value="" style="group;rotation=0;" parent="1" vertex="1" connectable="0">
          <mxGeometry x="1008" y="-525" width="27.74" height="38" as="geometry" />
        </mxCell>
        <mxCell id="wK4yyW2enQjn8KItqj0e-105" value="" style="shape=stencil(tZXRjoIwEEW/pq+bQsPq6wb1PyqOS2NtSdvV3b93oGCs0I0IJISkc7mHIb1DCcttySsgKS0J25A0TSjFO66vT2tuKyicL164EXwvwSvWGX2Cqzi4liFUCUa4WmVbQr/wmfpieaGVQojQygbKg44wLhR66a+Hta//C1YV8s/gwLRNNtXd68yPbAFqskSnIbPre95OZ6KGvSaL7NQ81ORNJsuxEgsxy/e8OH0b/aMOfVdUO2oDA8JdFlL6AYt9YMXruesJnXzWF/h/moawnVsK9eC+/wxaP5sKWI0FPGWMTvOvx9qz0P+ZTfOzsf7Q/sL+FVLbaHKwHgkPHguDmWs8vcQ2VX+ONIUb);whiteSpace=wrap;html=1;rounded=0;strokeColor=#82b366;align=center;verticalAlign=middle;fontFamily=Helvetica;fontSize=12;fillColor=#d5e8d4;rotation=0;" parent="wK4yyW2enQjn8KItqj0e-104" vertex="1">
          <mxGeometry width="23.943489287275906" height="38" as="geometry" />
        </mxCell>
        <mxCell id="wK4yyW2enQjn8KItqj0e-106" value="&lt;font size=&quot;1&quot; style=&quot;&quot;&gt;&lt;b style=&quot;font-size: 8px;&quot;&gt;ADD&lt;/b&gt;&lt;/font&gt;" style="text;html=1;strokeColor=none;fillColor=none;align=center;verticalAlign=middle;whiteSpace=wrap;rounded=0;rotation=-90;" parent="wK4yyW2enQjn8KItqj0e-104" vertex="1">
          <mxGeometry x="7.277656318320946" y="13.028571428571428" width="21.190109313511154" height="10.335999999999997" as="geometry" />
        </mxCell>
        <mxCell id="wK4yyW2enQjn8KItqj0e-107" value="" style="endArrow=classicThin;html=1;rounded=0;fontFamily=Helvetica;fontSize=12;fontColor=default;exitX=0.308;exitY=-0.034;exitDx=0;exitDy=0;exitPerimeter=0;entryX=-0.027;entryY=0.118;entryDx=0;entryDy=0;entryPerimeter=0;endFill=1;" parent="1" source="wK4yyW2enQjn8KItqj0e-51" target="wK4yyW2enQjn8KItqj0e-105" edge="1">
          <mxGeometry width="50" height="50" relative="1" as="geometry">
            <mxPoint x="748" y="-442" as="sourcePoint" />
            <mxPoint x="798" y="-492" as="targetPoint" />
            <Array as="points">
              <mxPoint x="704" y="-441" />
              <mxPoint x="704" y="-521" />
            </Array>
          </mxGeometry>
        </mxCell>
        <mxCell id="wK4yyW2enQjn8KItqj0e-108" style="edgeStyle=orthogonalEdgeStyle;rounded=0;orthogonalLoop=1;jettySize=auto;html=1;exitX=1;exitY=0.5;exitDx=0;exitDy=0;entryX=0.012;entryY=0.906;entryDx=0;entryDy=0;entryPerimeter=0;fontFamily=Helvetica;fontSize=12;fontColor=default;jumpStyle=arc;endArrow=classicThin;endFill=1;" parent="1" source="wK4yyW2enQjn8KItqj0e-61" target="wK4yyW2enQjn8KItqj0e-105" edge="1">
          <mxGeometry relative="1" as="geometry">
            <Array as="points">
              <mxPoint x="931" y="-174" />
              <mxPoint x="931" y="-491" />
              <mxPoint x="1008" y="-491" />
            </Array>
          </mxGeometry>
        </mxCell>
        <mxCell id="wK4yyW2enQjn8KItqj0e-109" style="edgeStyle=orthogonalEdgeStyle;rounded=0;orthogonalLoop=1;jettySize=auto;html=1;exitX=0.5;exitY=1;exitDx=0;exitDy=0;fontFamily=Helvetica;fontSize=12;fontColor=default;endArrow=classicThin;endFill=1;" parent="1" edge="1">
          <mxGeometry relative="1" as="geometry">
            <mxPoint x="1032.0407109750768" y="-506.8034285714285" as="sourcePoint" />
            <mxPoint x="1064" y="-507" as="targetPoint" />
          </mxGeometry>
        </mxCell>
        <mxCell id="wK4yyW2enQjn8KItqj0e-112" style="edgeStyle=orthogonalEdgeStyle;rounded=0;orthogonalLoop=1;jettySize=auto;html=1;exitX=1;exitY=0.5;exitDx=0;exitDy=0;entryX=-0.033;entryY=0.905;entryDx=0;entryDy=0;entryPerimeter=0;fontFamily=Helvetica;fontSize=12;fontColor=default;endArrow=classicThin;endFill=1;jumpStyle=arc;" parent="1" source="wK4yyW2enQjn8KItqj0e-58" target="wK4yyW2enQjn8KItqj0e-102" edge="1">
          <mxGeometry relative="1" as="geometry">
            <Array as="points">
              <mxPoint x="962" y="-245" />
              <mxPoint x="962" y="-438" />
            </Array>
          </mxGeometry>
        </mxCell>
        <mxCell id="wK4yyW2enQjn8KItqj0e-113" value="" style="endArrow=classicThin;html=1;rounded=0;fontFamily=Helvetica;fontSize=12;fontColor=default;entryX=-0.042;entryY=0.114;entryDx=0;entryDy=0;entryPerimeter=0;endFill=1;" parent="1" target="wK4yyW2enQjn8KItqj0e-102" edge="1">
          <mxGeometry width="50" height="50" relative="1" as="geometry">
            <mxPoint x="948" y="-361" as="sourcePoint" />
            <mxPoint x="1050" y="-377" as="targetPoint" />
            <Array as="points">
              <mxPoint x="948" y="-468" />
            </Array>
          </mxGeometry>
        </mxCell>
        <mxCell id="wK4yyW2enQjn8KItqj0e-114" value="" style="ellipse;whiteSpace=wrap;html=1;aspect=fixed;rounded=0;strokeColor=default;align=center;verticalAlign=middle;fontFamily=Helvetica;fontSize=12;fontColor=default;fillColor=#000000;gradientColor=none;" parent="1" vertex="1">
          <mxGeometry x="946" y="-364" width="5" height="5" as="geometry" />
        </mxCell>
        <mxCell id="wK4yyW2enQjn8KItqj0e-116" value="" style="ellipse;whiteSpace=wrap;html=1;aspect=fixed;rounded=0;strokeColor=default;align=center;verticalAlign=middle;fontFamily=Helvetica;fontSize=12;fontColor=default;fillColor=#000000;gradientColor=none;" parent="1" vertex="1">
          <mxGeometry x="658" y="-278" width="5" height="5" as="geometry" />
        </mxCell>
        <mxCell id="wK4yyW2enQjn8KItqj0e-117" value="" style="endArrow=classicThin;html=1;rounded=0;fontFamily=Helvetica;fontSize=12;fontColor=default;endFill=1;entryX=-0.003;entryY=0.118;entryDx=0;entryDy=0;entryPerimeter=0;" parent="1" target="wK4yyW2enQjn8KItqj0e-83" edge="1">
          <mxGeometry width="50" height="50" relative="1" as="geometry">
            <mxPoint x="979" y="-361" as="sourcePoint" />
            <mxPoint x="1007" y="-424" as="targetPoint" />
            <Array as="points">
              <mxPoint x="979" y="-416" />
            </Array>
          </mxGeometry>
        </mxCell>
        <mxCell id="wK4yyW2enQjn8KItqj0e-119" value="" style="ellipse;whiteSpace=wrap;html=1;aspect=fixed;rounded=0;strokeColor=default;align=center;verticalAlign=middle;fontFamily=Helvetica;fontSize=12;fontColor=default;fillColor=#000000;gradientColor=none;" parent="1" vertex="1">
          <mxGeometry x="977" y="-363.5" width="5" height="5" as="geometry" />
        </mxCell>
        <mxCell id="wK4yyW2enQjn8KItqj0e-120" value="&lt;font style=&quot;font-size: 10px;&quot;&gt;imm16&lt;/font&gt;" style="text;html=1;align=center;verticalAlign=middle;whiteSpace=wrap;rounded=0;fontFamily=Helvetica;fontSize=12;fontColor=default;" parent="1" vertex="1">
          <mxGeometry x="774" y="-264" width="36" height="21" as="geometry" />
        </mxCell>
        <mxCell id="wK4yyW2enQjn8KItqj0e-121" value="&lt;font style=&quot;font-size: 10px;&quot;&gt;imm16&lt;/font&gt;" style="text;html=1;align=center;verticalAlign=middle;whiteSpace=wrap;rounded=0;fontFamily=Helvetica;fontSize=12;fontColor=default;" parent="1" vertex="1">
          <mxGeometry x="961" y="-455" width="36" height="21" as="geometry" />
        </mxCell>
        <mxCell id="wK4yyW2enQjn8KItqj0e-122" value="&lt;font style=&quot;font-size: 10px;&quot;&gt;imm17&lt;/font&gt;" style="text;html=1;align=center;verticalAlign=middle;whiteSpace=wrap;rounded=0;fontFamily=Helvetica;fontSize=12;fontColor=default;" parent="1" vertex="1">
          <mxGeometry x="805" y="-231" width="36" height="21" as="geometry" />
        </mxCell>
        <mxCell id="wK4yyW2enQjn8KItqj0e-123" value="&lt;font style=&quot;font-size: 10px;&quot;&gt;imm17&lt;/font&gt;" style="text;html=1;align=center;verticalAlign=middle;whiteSpace=wrap;rounded=0;fontFamily=Helvetica;fontSize=12;fontColor=default;rotation=-90;" parent="1" vertex="1">
          <mxGeometry x="980" y="-308" width="36" height="21" as="geometry" />
        </mxCell>
        <mxCell id="wK4yyW2enQjn8KItqj0e-125" style="edgeStyle=orthogonalEdgeStyle;rounded=0;orthogonalLoop=1;jettySize=auto;html=1;exitX=0.5;exitY=1;exitDx=0;exitDy=0;fontFamily=Helvetica;fontSize=12;fontColor=default;" parent="1" edge="1">
          <mxGeometry relative="1" as="geometry">
            <mxPoint x="1033.0407109750765" y="-401.8034285714284" as="sourcePoint" />
            <mxPoint x="1064" y="-401" as="targetPoint" />
          </mxGeometry>
        </mxCell>
        <mxCell id="wK4yyW2enQjn8KItqj0e-126" value="&lt;font style=&quot;font-size: 10px;&quot;&gt;imm23&lt;/font&gt;" style="text;html=1;align=center;verticalAlign=middle;whiteSpace=wrap;rounded=0;fontFamily=Helvetica;fontSize=12;fontColor=default;" parent="1" vertex="1">
          <mxGeometry x="839" y="-193" width="36" height="21" as="geometry" />
        </mxCell>
        <mxCell id="wK4yyW2enQjn8KItqj0e-127" value="&lt;font style=&quot;font-size: 10px;&quot;&gt;imm23&lt;/font&gt;" style="text;html=1;align=center;verticalAlign=middle;whiteSpace=wrap;rounded=0;fontFamily=Helvetica;fontSize=12;fontColor=default;" parent="1" vertex="1">
          <mxGeometry x="962" y="-509" width="36" height="21" as="geometry" />
        </mxCell>
        <mxCell id="wK4yyW2enQjn8KItqj0e-150" style="edgeStyle=orthogonalEdgeStyle;rounded=0;orthogonalLoop=1;jettySize=auto;html=1;exitX=1;exitY=0.5;exitDx=0;exitDy=0;entryX=0.5;entryY=1;entryDx=0;entryDy=0;fontFamily=Helvetica;fontSize=12;fontColor=default;" parent="1" source="wK4yyW2enQjn8KItqj0e-129" target="wK4yyW2enQjn8KItqj0e-148" edge="1">
          <mxGeometry relative="1" as="geometry" />
        </mxCell>
        <mxCell id="wK4yyW2enQjn8KItqj0e-129" value="" style="shape=stencil(tZXRjoIwEEW/pq+bQsPq6wb1PyqOS2NtSdvV3b93oGCs0I0IJISkc7mHIb1DCcttySsgKS0J25A0TSjFO66vT2tuKyicL164EXwvwSvWGX2Cqzi4liFUCUa4WmVbQr/wmfpieaGVQojQygbKg44wLhR66a+Hta//C1YV8s/gwLRNNtXd68yPbAFqskSnIbPre95OZ6KGvSaL7NQ81ORNJsuxEgsxy/e8OH0b/aMOfVdUO2oDA8JdFlL6AYt9YMXruesJnXzWF/h/moawnVsK9eC+/wxaP5sKWI0FPGWMTvOvx9qz0P+ZTfOzsf7Q/sL+FVLbaHKwHgkPHguDmWs8vcQ2VX+ONIUb);whiteSpace=wrap;html=1;rounded=0;strokeColor=#6c8ebf;align=center;verticalAlign=middle;fontFamily=Helvetica;fontSize=12;fillColor=#dae8fc;" parent="1" vertex="1">
          <mxGeometry x="1163" y="-374" width="45" height="59" as="geometry" />
        </mxCell>
        <mxCell id="wK4yyW2enQjn8KItqj0e-130" value="&lt;b style=&quot;border-color: var(--border-color);&quot;&gt;&lt;font style=&quot;font-size: 12px;&quot;&gt;ALU&lt;/font&gt;&lt;/b&gt;" style="text;html=1;strokeColor=none;fillColor=none;align=center;verticalAlign=middle;whiteSpace=wrap;rounded=0;rotation=-90;" parent="1" vertex="1">
          <mxGeometry x="1185.9976563183209" y="-350.0014285714286" width="21.190109313511154" height="10.335999999999997" as="geometry" />
        </mxCell>
        <mxCell id="wK4yyW2enQjn8KItqj0e-131" value="" style="endArrow=classicThin;html=1;rounded=0;fontFamily=Helvetica;fontSize=12;fontColor=default;exitX=0.454;exitY=-0.006;exitDx=0;exitDy=0;exitPerimeter=0;endFill=1;entryX=-0.014;entryY=0.115;entryDx=0;entryDy=0;entryPerimeter=0;" parent="1" source="wK4yyW2enQjn8KItqj0e-87" target="wK4yyW2enQjn8KItqj0e-129" edge="1">
          <mxGeometry width="50" height="50" relative="1" as="geometry">
            <mxPoint x="1118" y="-379" as="sourcePoint" />
            <mxPoint x="1162" y="-367" as="targetPoint" />
          </mxGeometry>
        </mxCell>
        <mxCell id="wK4yyW2enQjn8KItqj0e-133" value="Mux" style="shadow=0;dashed=0;align=center;html=1;strokeWidth=1;shape=mxgraph.electrical.abstract.mux2;whiteSpace=wrap;rounded=0;verticalAlign=middle;fontFamily=Helvetica;fontSize=12;selectorPins=1;fillColor=#dae8fc;strokeColor=#6c8ebf;" parent="1" vertex="1">
          <mxGeometry x="1115" y="-351" width="47.47" height="71" as="geometry" />
        </mxCell>
        <mxCell id="wK4yyW2enQjn8KItqj0e-132" value="" style="endArrow=none;html=1;rounded=0;fontFamily=Helvetica;fontSize=12;fontColor=default;exitX=0.474;exitY=0.011;exitDx=0;exitDy=0;exitPerimeter=0;entryX=0.214;entryY=0.234;entryDx=0;entryDy=0;entryPerimeter=0;endFill=0;" parent="1" target="wK4yyW2enQjn8KItqj0e-133" edge="1">
          <mxGeometry width="50" height="50" relative="1" as="geometry">
            <mxPoint x="1096" y="-334" as="sourcePoint" />
            <mxPoint x="1125" y="-334" as="targetPoint" />
          </mxGeometry>
        </mxCell>
        <mxCell id="wK4yyW2enQjn8KItqj0e-134" value="" style="endArrow=classic;html=1;rounded=0;fontFamily=Helvetica;fontSize=12;fontColor=default;" parent="1" edge="1">
          <mxGeometry width="50" height="50" relative="1" as="geometry">
            <mxPoint x="962" y="-245" as="sourcePoint" />
            <mxPoint x="1064" y="-245" as="targetPoint" />
          </mxGeometry>
        </mxCell>
        <mxCell id="wK4yyW2enQjn8KItqj0e-135" value="" style="endArrow=none;html=1;rounded=0;fontFamily=Helvetica;fontSize=12;fontColor=default;entryX=0.204;entryY=0.621;entryDx=0;entryDy=0;entryPerimeter=0;exitX=0.691;exitY=-0.016;exitDx=0;exitDy=0;exitPerimeter=0;" parent="1" source="wK4yyW2enQjn8KItqj0e-87" target="wK4yyW2enQjn8KItqj0e-133" edge="1">
          <mxGeometry width="50" height="50" relative="1" as="geometry">
            <mxPoint x="1126" y="-200" as="sourcePoint" />
            <mxPoint x="1176" y="-250" as="targetPoint" />
            <Array as="points">
              <mxPoint x="1115" y="-248" />
              <mxPoint x="1115" y="-307" />
            </Array>
          </mxGeometry>
        </mxCell>
        <mxCell id="wK4yyW2enQjn8KItqj0e-136" value="" style="group" parent="1" vertex="1" connectable="0">
          <mxGeometry x="1331" y="-408" width="96.29999999999995" height="112.75999999999999" as="geometry" />
        </mxCell>
        <mxCell id="wK4yyW2enQjn8KItqj0e-137" value="" style="rounded=1;whiteSpace=wrap;html=1;rotation=90;fillColor=#e1d5e7;strokeColor=#9673a6;" parent="wK4yyW2enQjn8KItqj0e-136" vertex="1">
          <mxGeometry x="-5.539999999999964" y="11.5" width="112.52" height="90" as="geometry" />
        </mxCell>
        <mxCell id="wK4yyW2enQjn8KItqj0e-138" value="&lt;font&gt;&lt;span style=&quot;font-size: 11px;&quot;&gt;Data Memory&lt;/span&gt;&lt;br&gt;&lt;font style=&quot;font-size: 8px;&quot;&gt;4096 X 32 bits&lt;/font&gt;&lt;/font&gt;" style="text;html=1;strokeColor=none;fillColor=none;align=center;verticalAlign=middle;whiteSpace=wrap;rounded=0;" parent="wK4yyW2enQjn8KItqj0e-136" vertex="1">
          <mxGeometry x="6.2999999999999545" width="90" height="30" as="geometry" />
        </mxCell>
        <mxCell id="wK4yyW2enQjn8KItqj0e-139" value="" style="triangle;whiteSpace=wrap;html=1;fillColor=#e1d5e7;strokeColor=#9673a6;" parent="wK4yyW2enQjn8KItqj0e-136" vertex="1">
          <mxGeometry x="6.2999999999999545" y="85" width="7.5" height="15" as="geometry" />
        </mxCell>
        <mxCell id="wK4yyW2enQjn8KItqj0e-140" value="&lt;font style=&quot;font-size: 8px;&quot;&gt;address&lt;/font&gt;" style="text;html=1;strokeColor=none;fillColor=none;align=center;verticalAlign=middle;whiteSpace=wrap;rounded=0;" parent="wK4yyW2enQjn8KItqj0e-136" vertex="1">
          <mxGeometry x="6" y="31" width="32.3" height="12.98" as="geometry" />
        </mxCell>
        <mxCell id="wK4yyW2enQjn8KItqj0e-141" value="&lt;font style=&quot;font-size: 8px;&quot;&gt;clk&lt;br&gt;&lt;/font&gt;" style="text;html=1;strokeColor=none;fillColor=none;align=center;verticalAlign=middle;whiteSpace=wrap;rounded=0;" parent="wK4yyW2enQjn8KItqj0e-136" vertex="1">
          <mxGeometry x="15" y="85" width="9.8" height="12.98" as="geometry" />
        </mxCell>
        <mxCell id="wK4yyW2enQjn8KItqj0e-142" value="&lt;font style=&quot;font-size: 8px;&quot;&gt;data_in&lt;/font&gt;" style="text;html=1;strokeColor=none;fillColor=none;align=center;verticalAlign=middle;whiteSpace=wrap;rounded=0;" parent="wK4yyW2enQjn8KItqj0e-136" vertex="1">
          <mxGeometry x="2.840000000000032" y="43.97999999999999" width="36" height="12.98" as="geometry" />
        </mxCell>
        <mxCell id="wK4yyW2enQjn8KItqj0e-143" value="&lt;span style=&quot;font-size: 8px;&quot;&gt;we&lt;/span&gt;" style="text;html=1;strokeColor=none;fillColor=none;align=center;verticalAlign=middle;whiteSpace=wrap;rounded=0;" parent="wK4yyW2enQjn8KItqj0e-136" vertex="1">
          <mxGeometry x="4.2999999999999545" y="57" width="20" height="10" as="geometry" />
        </mxCell>
        <mxCell id="wK4yyW2enQjn8KItqj0e-144" value="&lt;span style=&quot;font-size: 8px;&quot;&gt;data_out&lt;/span&gt;" style="text;html=1;strokeColor=none;fillColor=none;align=center;verticalAlign=middle;whiteSpace=wrap;rounded=0;" parent="wK4yyW2enQjn8KItqj0e-136" vertex="1">
          <mxGeometry x="62.299999999999955" y="58.98000000000002" width="30" height="12.98" as="geometry" />
        </mxCell>
        <mxCell id="wK4yyW2enQjn8KItqj0e-145" value="&lt;span style=&quot;font-size: 8px;&quot;&gt;rst&lt;/span&gt;" style="text;html=1;strokeColor=none;fillColor=none;align=center;verticalAlign=middle;whiteSpace=wrap;rounded=0;" parent="wK4yyW2enQjn8KItqj0e-136" vertex="1">
          <mxGeometry x="3.2999999999999545" y="69.75" width="20" height="10" as="geometry" />
        </mxCell>
        <mxCell id="wK4yyW2enQjn8KItqj0e-146" value="" style="endArrow=none;html=1;rounded=0;fontFamily=Helvetica;fontSize=12;fontColor=default;exitX=0;exitY=1;exitDx=0;exitDy=0;entryX=1;entryY=1;entryDx=0;entryDy=0;fillColor=#e1d5e7;strokeColor=#9673a6;" parent="wK4yyW2enQjn8KItqj0e-136" edge="1">
          <mxGeometry width="50" height="50" relative="1" as="geometry">
            <mxPoint x="5.2999999999999545" y="30" as="sourcePoint" />
            <mxPoint x="95.29999999999995" y="30" as="targetPoint" />
          </mxGeometry>
        </mxCell>
        <mxCell id="wK4yyW2enQjn8KItqj0e-148" value="" style="rounded=1;whiteSpace=wrap;html=1;strokeColor=#d79b00;align=center;verticalAlign=middle;fontFamily=Helvetica;fontSize=12;fillColor=#ffe6cc;rotation=90;" parent="1" vertex="1">
          <mxGeometry x="1047" y="-359.5" width="501" height="30" as="geometry" />
        </mxCell>
        <mxCell id="wK4yyW2enQjn8KItqj0e-149" value="EX/MEM" style="text;html=1;align=center;verticalAlign=middle;whiteSpace=wrap;rounded=0;fontFamily=Helvetica;fontSize=12;fontColor=default;" parent="1" vertex="1">
          <mxGeometry x="1282" y="-620" width="33" height="30" as="geometry" />
        </mxCell>
        <mxCell id="wK4yyW2enQjn8KItqj0e-151" value="" style="endArrow=classicThin;dashed=1;html=1;dashPattern=1 3;strokeWidth=2;rounded=0;fontFamily=Helvetica;fontSize=12;fontColor=default;entryX=0.98;entryY=1.102;entryDx=0;entryDy=0;entryPerimeter=0;exitX=0.98;exitY=-0.009;exitDx=0;exitDy=0;exitPerimeter=0;endFill=1;" parent="1" source="wK4yyW2enQjn8KItqj0e-51" target="wK4yyW2enQjn8KItqj0e-87" edge="1">
          <mxGeometry width="50" height="50" relative="1" as="geometry">
            <mxPoint x="703" y="-83" as="sourcePoint" />
            <mxPoint x="753" y="-133" as="targetPoint" />
          </mxGeometry>
        </mxCell>
        <mxCell id="wK4yyW2enQjn8KItqj0e-152" value="" style="endArrow=classicThin;dashed=1;html=1;dashPattern=1 3;strokeWidth=2;rounded=0;fontFamily=Helvetica;fontSize=12;fontColor=default;exitX=0.98;exitY=-0.009;exitDx=0;exitDy=0;exitPerimeter=0;endFill=1;" parent="1" edge="1">
          <mxGeometry width="50" height="50" relative="1" as="geometry">
            <mxPoint x="1096" y="-103" as="sourcePoint" />
            <mxPoint x="1281" y="-103" as="targetPoint" />
          </mxGeometry>
        </mxCell>
        <mxCell id="wK4yyW2enQjn8KItqj0e-153" value="" style="rounded=1;whiteSpace=wrap;html=1;strokeColor=#d79b00;align=center;verticalAlign=middle;fontFamily=Helvetica;fontSize=12;fillColor=#ffe6cc;rotation=90;" parent="1" vertex="1">
          <mxGeometry x="1261" y="-358.5" width="501" height="30" as="geometry" />
        </mxCell>
        <mxCell id="wK4yyW2enQjn8KItqj0e-154" value="MEM/WB" style="text;html=1;align=center;verticalAlign=middle;whiteSpace=wrap;rounded=0;fontFamily=Helvetica;fontSize=12;fontColor=default;" parent="1" vertex="1">
          <mxGeometry x="1495" y="-621" width="33" height="30" as="geometry" />
        </mxCell>
        <mxCell id="wK4yyW2enQjn8KItqj0e-155" value="" style="group;" parent="1" vertex="1" connectable="0">
          <mxGeometry x="1161" y="-202" width="99.78" height="80" as="geometry" />
        </mxCell>
        <mxCell id="wK4yyW2enQjn8KItqj0e-156" value="" style="rounded=1;whiteSpace=wrap;html=1;fillColor=#dae8fc;strokeColor=#6c8ebf;" parent="wK4yyW2enQjn8KItqj0e-155" vertex="1">
          <mxGeometry x="0.6244466403162678" width="99.15555335968375" height="80" as="geometry" />
        </mxCell>
        <mxCell id="wK4yyW2enQjn8KItqj0e-157" value="&lt;font&gt;&lt;font style=&quot;font-size: 10px;&quot;&gt;Stack Pointer&lt;/font&gt;&lt;br&gt;&lt;/font&gt;" style="text;html=1;align=center;verticalAlign=middle;whiteSpace=wrap;rounded=0;" parent="wK4yyW2enQjn8KItqj0e-155" vertex="1">
          <mxGeometry x="0.6244466403162678" width="99.15555335968375" height="20" as="geometry" />
        </mxCell>
        <mxCell id="wK4yyW2enQjn8KItqj0e-158" value="" style="triangle;whiteSpace=wrap;html=1;fillColor=#dae8fc;strokeColor=#6c8ebf;" parent="wK4yyW2enQjn8KItqj0e-155" vertex="1">
          <mxGeometry x="1.0352667984189718" y="54" width="6.162302371541499" height="16" as="geometry" />
        </mxCell>
        <mxCell id="wK4yyW2enQjn8KItqj0e-159" value="&lt;font style=&quot;font-size: 8px;&quot;&gt;clk&lt;br&gt;&lt;/font&gt;" style="text;html=1;align=center;verticalAlign=middle;whiteSpace=wrap;rounded=0;" parent="wK4yyW2enQjn8KItqj0e-155" vertex="1">
          <mxGeometry x="6.5238241106719785" y="52.99999999999993" width="12.58752964426877" height="12.98" as="geometry" />
        </mxCell>
        <mxCell id="wK4yyW2enQjn8KItqj0e-160" value="&lt;span style=&quot;font-size: 8px;&quot;&gt;SP_load&lt;/span&gt;" style="text;html=1;align=center;verticalAlign=middle;whiteSpace=wrap;rounded=0;" parent="wK4yyW2enQjn8KItqj0e-155" vertex="1">
          <mxGeometry x="9.78674901185779" y="29.999999999999986" width="16.432806324110665" height="10" as="geometry" />
        </mxCell>
        <mxCell id="wK4yyW2enQjn8KItqj0e-161" value="&lt;span style=&quot;font-size: 8px;&quot;&gt;SP_in&lt;/span&gt;" style="text;html=1;align=center;verticalAlign=middle;whiteSpace=wrap;rounded=0;" parent="wK4yyW2enQjn8KItqj0e-155" vertex="1">
          <mxGeometry x="5.089367588932891" y="18.999999999999986" width="16.432806324110665" height="10" as="geometry" />
        </mxCell>
        <mxCell id="wK4yyW2enQjn8KItqj0e-162" value="&lt;font style=&quot;font-size: 8px;&quot;&gt;rst&lt;br&gt;&lt;/font&gt;" style="text;html=1;align=center;verticalAlign=middle;whiteSpace=wrap;rounded=0;" parent="wK4yyW2enQjn8KItqj0e-155" vertex="1">
          <mxGeometry x="1" y="40.01999999999997" width="12.58752964426877" height="12.98" as="geometry" />
        </mxCell>
        <mxCell id="wK4yyW2enQjn8KItqj0e-163" value="&lt;span style=&quot;font-size: 8px;&quot;&gt;SP_out&lt;/span&gt;" style="text;html=1;align=center;verticalAlign=middle;whiteSpace=wrap;rounded=0;" parent="wK4yyW2enQjn8KItqj0e-155" vertex="1">
          <mxGeometry x="76.74360671936756" y="39.999999999999986" width="16.432806324110665" height="10" as="geometry" />
        </mxCell>
        <mxCell id="wK4yyW2enQjn8KItqj0e-164" value="" style="endArrow=none;html=1;rounded=0;fontFamily=Helvetica;fontSize=12;fontColor=default;exitX=0;exitY=0.75;exitDx=0;exitDy=0;entryX=1;entryY=0.75;entryDx=0;entryDy=0;fillColor=#dae8fc;strokeColor=#6c8ebf;" parent="wK4yyW2enQjn8KItqj0e-155" edge="1">
          <mxGeometry width="50" height="50" relative="1" as="geometry">
            <mxPoint x="0.6244466403162912" y="18.000000000000227" as="sourcePoint" />
            <mxPoint x="99.78" y="18.000000000000227" as="targetPoint" />
          </mxGeometry>
        </mxCell>
        <mxCell id="wK4yyW2enQjn8KItqj0e-167" value="" style="endArrow=classicThin;html=1;rounded=0;fontFamily=Helvetica;fontSize=12;fontColor=default;exitX=0.379;exitY=0.062;exitDx=0;exitDy=0;exitPerimeter=0;endFill=1;" parent="1" edge="1">
          <mxGeometry width="50" height="50" relative="1" as="geometry">
            <mxPoint x="1095.4699999999998" y="-401.4509999999998" as="sourcePoint" />
            <mxPoint x="1282" y="-402" as="targetPoint" />
          </mxGeometry>
        </mxCell>
        <mxCell id="wK4yyW2enQjn8KItqj0e-168" value="" style="endArrow=classicThin;html=1;rounded=0;fontFamily=Helvetica;fontSize=12;fontColor=default;exitX=0.379;exitY=0.062;exitDx=0;exitDy=0;exitPerimeter=0;endFill=1;" parent="1" edge="1">
          <mxGeometry width="50" height="50" relative="1" as="geometry">
            <mxPoint x="1096.4699999999998" y="-452.7209999999998" as="sourcePoint" />
            <mxPoint x="1283" y="-453.27" as="targetPoint" />
          </mxGeometry>
        </mxCell>
        <mxCell id="wK4yyW2enQjn8KItqj0e-169" value="" style="endArrow=classicThin;html=1;rounded=0;fontFamily=Helvetica;fontSize=12;fontColor=default;exitX=0.379;exitY=0.062;exitDx=0;exitDy=0;exitPerimeter=0;endFill=1;" parent="1" edge="1">
          <mxGeometry width="50" height="50" relative="1" as="geometry">
            <mxPoint x="1095.9999999999998" y="-507.4509999999998" as="sourcePoint" />
            <mxPoint x="1282.53" y="-508" as="targetPoint" />
          </mxGeometry>
        </mxCell>
        <mxCell id="wK4yyW2enQjn8KItqj0e-170" value="" style="group;rotation=-180;" parent="1" vertex="1" connectable="0">
          <mxGeometry x="1216" y="-251" width="27.74" height="38" as="geometry" />
        </mxCell>
        <mxCell id="wK4yyW2enQjn8KItqj0e-171" value="" style="shape=stencil(tZXRjoIwEEW/pq+bQsPq6wb1PyqOS2NtSdvV3b93oGCs0I0IJISkc7mHIb1DCcttySsgKS0J25A0TSjFO66vT2tuKyicL164EXwvwSvWGX2Cqzi4liFUCUa4WmVbQr/wmfpieaGVQojQygbKg44wLhR66a+Hta//C1YV8s/gwLRNNtXd68yPbAFqskSnIbPre95OZ6KGvSaL7NQ81ORNJsuxEgsxy/e8OH0b/aMOfVdUO2oDA8JdFlL6AYt9YMXruesJnXzWF/h/moawnVsK9eC+/wxaP5sKWI0FPGWMTvOvx9qz0P+ZTfOzsf7Q/sL+FVLbaHKwHgkPHguDmWs8vcQ2VX+ONIUb);whiteSpace=wrap;html=1;rounded=0;strokeColor=#6c8ebf;align=center;verticalAlign=middle;fontFamily=Helvetica;fontSize=12;fillColor=#dae8fc;rotation=-180;fontStyle=1" parent="wK4yyW2enQjn8KItqj0e-170" vertex="1">
          <mxGeometry x="3.8" width="23.943489287275906" height="38" as="geometry" />
        </mxCell>
        <mxCell id="wK4yyW2enQjn8KItqj0e-177" value="&lt;b style=&quot;border-color: var(--border-color); font-size: 8px;&quot;&gt;SUB&lt;/b&gt;" style="text;html=1;strokeColor=none;fillColor=none;align=center;verticalAlign=middle;whiteSpace=wrap;rounded=0;rotation=-91;" parent="wK4yyW2enQjn8KItqj0e-170" vertex="1">
          <mxGeometry x="-3" y="13.829999999999984" width="21.190109313511154" height="10.335999999999997" as="geometry" />
        </mxCell>
        <mxCell id="wK4yyW2enQjn8KItqj0e-173" style="edgeStyle=orthogonalEdgeStyle;rounded=0;orthogonalLoop=1;jettySize=auto;html=1;exitX=1;exitY=0.5;exitDx=0;exitDy=0;fontFamily=Helvetica;fontSize=12;fontColor=default;" parent="1" edge="1">
          <mxGeometry relative="1" as="geometry">
            <mxPoint x="1261.5" y="-155" as="sourcePoint" />
            <mxPoint x="1282" y="-155" as="targetPoint" />
          </mxGeometry>
        </mxCell>
        <mxCell id="wK4yyW2enQjn8KItqj0e-174" value="Mux" style="shadow=0;dashed=0;align=center;html=1;strokeWidth=1;shape=mxgraph.electrical.abstract.mux2;whiteSpace=wrap;rounded=0;verticalAlign=middle;fontFamily=Helvetica;fontSize=12;selectorPins=1;fillColor=#dae8fc;strokeColor=#6c8ebf;" parent="1" vertex="1">
          <mxGeometry x="1114.53" y="-207" width="47.47" height="71" as="geometry" />
        </mxCell>
        <mxCell id="wK4yyW2enQjn8KItqj0e-176" value="" style="shape=stencil(tZXRjoIwEEW/pq+bQsPq6wb1PyqOS2NtSdvV3b93oGCs0I0IJISkc7mHIb1DCcttySsgKS0J25A0TSjFO66vT2tuKyicL164EXwvwSvWGX2Cqzi4liFUCUa4WmVbQr/wmfpieaGVQojQygbKg44wLhR66a+Hta//C1YV8s/gwLRNNtXd68yPbAFqskSnIbPre95OZ6KGvSaL7NQ81ORNJsuxEgsxy/e8OH0b/aMOfVdUO2oDA8JdFlL6AYt9YMXruesJnXzWF/h/moawnVsK9eC+/wxaP5sKWI0FPGWMTvOvx9qz0P+ZTfOzsf7Q/sL+FVLbaHKwHgkPHguDmWs8vcQ2VX+ONIUb);whiteSpace=wrap;html=1;rounded=0;strokeColor=#6c8ebf;align=center;verticalAlign=middle;fontFamily=Helvetica;fontSize=12;fillColor=#dae8fc;rotation=-180;" parent="1" vertex="1">
          <mxGeometry x="1219.8" y="-293" width="23.943489287275906" height="38" as="geometry" />
        </mxCell>
        <mxCell id="wK4yyW2enQjn8KItqj0e-172" value="&lt;b style=&quot;border-color: var(--border-color); font-size: 8px;&quot;&gt;ADD&lt;/b&gt;" style="text;html=1;strokeColor=none;fillColor=none;align=center;verticalAlign=middle;whiteSpace=wrap;rounded=0;rotation=-91;" parent="1" vertex="1">
          <mxGeometry x="1214" y="-279" width="21.190109313511154" height="10.335999999999997" as="geometry" />
        </mxCell>
        <mxCell id="wK4yyW2enQjn8KItqj0e-178" value="" style="endArrow=classicThin;html=1;rounded=0;fontFamily=Helvetica;fontSize=12;fontColor=default;endFill=1;" parent="1" edge="1">
          <mxGeometry width="50" height="50" relative="1" as="geometry">
            <mxPoint x="1271" y="-155" as="sourcePoint" />
            <mxPoint x="1245" y="-259" as="targetPoint" />
            <Array as="points">
              <mxPoint x="1271" y="-259" />
            </Array>
          </mxGeometry>
        </mxCell>
        <mxCell id="wK4yyW2enQjn8KItqj0e-179" style="edgeStyle=orthogonalEdgeStyle;rounded=0;orthogonalLoop=1;jettySize=auto;html=1;exitX=1;exitY=0.5;exitDx=0;exitDy=0;fontFamily=Helvetica;fontSize=12;fontColor=default;endArrow=none;endFill=0;startArrow=classicThin;startFill=1;" parent="1" edge="1">
          <mxGeometry relative="1" as="geometry">
            <mxPoint x="1244.74" y="-217" as="sourcePoint" />
            <mxPoint x="1271" y="-217" as="targetPoint" />
          </mxGeometry>
        </mxCell>
        <mxCell id="wK4yyW2enQjn8KItqj0e-180" style="edgeStyle=orthogonalEdgeStyle;rounded=0;orthogonalLoop=1;jettySize=auto;html=1;exitX=1;exitY=0.5;exitDx=0;exitDy=0;fontFamily=Helvetica;fontSize=12;fontColor=default;endArrow=none;endFill=0;startArrow=classicThin;startFill=1;" parent="1" edge="1">
          <mxGeometry relative="1" as="geometry">
            <mxPoint x="1244.74" y="-247" as="sourcePoint" />
            <mxPoint x="1257" y="-247" as="targetPoint" />
            <Array as="points">
              <mxPoint x="1259" y="-247" />
              <mxPoint x="1259" y="-247" />
            </Array>
          </mxGeometry>
        </mxCell>
        <mxCell id="wK4yyW2enQjn8KItqj0e-181" value="&lt;font style=&quot;font-size: 10px;&quot;&gt;1&lt;/font&gt;" style="text;html=1;align=center;verticalAlign=middle;whiteSpace=wrap;rounded=0;fontFamily=Helvetica;fontSize=12;fontColor=default;" parent="1" vertex="1">
          <mxGeometry x="1257" y="-255" width="9" height="13" as="geometry" />
        </mxCell>
        <mxCell id="wK4yyW2enQjn8KItqj0e-182" style="edgeStyle=orthogonalEdgeStyle;rounded=0;orthogonalLoop=1;jettySize=auto;html=1;exitX=1;exitY=0.5;exitDx=0;exitDy=0;fontFamily=Helvetica;fontSize=12;fontColor=default;endArrow=none;endFill=0;startArrow=classicThin;startFill=1;" parent="1" edge="1">
          <mxGeometry relative="1" as="geometry">
            <mxPoint x="1244.74" y="-289" as="sourcePoint" />
            <mxPoint x="1257" y="-289" as="targetPoint" />
            <Array as="points">
              <mxPoint x="1259" y="-289" />
              <mxPoint x="1259" y="-289" />
            </Array>
          </mxGeometry>
        </mxCell>
        <mxCell id="wK4yyW2enQjn8KItqj0e-183" value="&lt;font style=&quot;font-size: 10px;&quot;&gt;1&lt;/font&gt;" style="text;html=1;align=center;verticalAlign=middle;whiteSpace=wrap;rounded=0;fontFamily=Helvetica;fontSize=12;fontColor=default;" parent="1" vertex="1">
          <mxGeometry x="1257" y="-297" width="9" height="13" as="geometry" />
        </mxCell>
        <mxCell id="wK4yyW2enQjn8KItqj0e-184" value="" style="endArrow=classicThin;html=1;rounded=0;fontFamily=Helvetica;fontSize=12;fontColor=default;entryX=0.203;entryY=0.624;entryDx=0;entryDy=0;entryPerimeter=0;exitX=0.5;exitY=0;exitDx=0;exitDy=0;endFill=1;" parent="1" source="wK4yyW2enQjn8KItqj0e-172" target="wK4yyW2enQjn8KItqj0e-174" edge="1">
          <mxGeometry width="50" height="50" relative="1" as="geometry">
            <mxPoint x="1099" y="-135" as="sourcePoint" />
            <mxPoint x="1149" y="-185" as="targetPoint" />
            <Array as="points">
              <mxPoint x="1205" y="-274" />
              <mxPoint x="1205" y="-237" />
              <mxPoint x="1104" y="-237" />
              <mxPoint x="1104" y="-163" />
            </Array>
          </mxGeometry>
        </mxCell>
        <mxCell id="wK4yyW2enQjn8KItqj0e-185" value="" style="endArrow=classicThin;html=1;rounded=0;fontFamily=Helvetica;fontSize=12;fontColor=default;entryX=0.203;entryY=0.239;entryDx=0;entryDy=0;exitX=0.508;exitY=0.083;exitDx=0;exitDy=0;endFill=1;entryPerimeter=0;exitPerimeter=0;" parent="1" source="wK4yyW2enQjn8KItqj0e-177" target="wK4yyW2enQjn8KItqj0e-174" edge="1">
          <mxGeometry width="50" height="50" relative="1" as="geometry">
            <mxPoint x="1203" y="-226" as="sourcePoint" />
            <mxPoint x="1153" y="-176" as="targetPoint" />
            <Array as="points">
              <mxPoint x="1108" y="-232" />
              <mxPoint x="1108" y="-190" />
            </Array>
          </mxGeometry>
        </mxCell>
        <mxCell id="wK4yyW2enQjn8KItqj0e-186" value="" style="endArrow=classic;html=1;rounded=0;fontFamily=Helvetica;fontSize=12;fontColor=default;entryX=0.238;entryY=0.132;entryDx=0;entryDy=0;entryPerimeter=0;jumpStyle=arc;" parent="1" target="wK4yyW2enQjn8KItqj0e-39" edge="1">
          <mxGeometry width="50" height="50" relative="1" as="geometry">
            <mxPoint x="1313" y="-508" as="sourcePoint" />
            <mxPoint x="1408" y="-558" as="targetPoint" />
            <Array as="points">
              <mxPoint x="1383" y="-507" />
              <mxPoint x="1384" y="-649" />
              <mxPoint x="506" y="-649" />
              <mxPoint x="506" y="-468" />
            </Array>
          </mxGeometry>
        </mxCell>
        <mxCell id="wK4yyW2enQjn8KItqj0e-188" value="&lt;font style=&quot;font-size: 10px;&quot;&gt;0&lt;/font&gt;" style="text;html=1;strokeColor=none;fillColor=none;align=center;verticalAlign=middle;whiteSpace=wrap;rounded=0;" parent="1" vertex="1">
          <mxGeometry x="926" y="162.99999999999994" width="30" height="30" as="geometry" />
        </mxCell>
        <mxCell id="wK4yyW2enQjn8KItqj0e-189" value="&lt;span style=&quot;font-size: 10px;&quot;&gt;8&lt;/span&gt;" style="text;html=1;strokeColor=none;fillColor=none;align=center;verticalAlign=middle;whiteSpace=wrap;rounded=0;" parent="1" vertex="1">
          <mxGeometry x="1039" y="162.99999999999994" width="30" height="30" as="geometry" />
        </mxCell>
        <mxCell id="wK4yyW2enQjn8KItqj0e-190" value="" style="rounded=0;whiteSpace=wrap;html=1;rotation=90;fillColor=#ffe6cc;strokeColor=#d79b00;direction=west;" parent="1" vertex="1">
          <mxGeometry x="984.25" y="-26.25" width="27" height="120" as="geometry" />
        </mxCell>
        <mxCell id="wK4yyW2enQjn8KItqj0e-191" value="&lt;b&gt;&lt;i&gt;Peripherals&lt;/i&gt;&lt;/b&gt;" style="text;html=1;strokeColor=none;fillColor=none;align=center;verticalAlign=middle;whiteSpace=wrap;rounded=0;" parent="1" vertex="1">
          <mxGeometry x="967.75" y="19.610000000000056" width="60" height="27.39" as="geometry" />
        </mxCell>
        <mxCell id="ARoB9waAcoGM5nF3GwMx-1" value="&lt;font style=&quot;font-size: 7px;&quot;&gt;0000 03B0 h&lt;/font&gt;" style="text;html=1;strokeColor=none;fillColor=none;align=center;verticalAlign=middle;whiteSpace=wrap;rounded=0;" parent="1" vertex="1">
          <mxGeometry x="879" y="59.99999999999999" width="71" height="17" as="geometry" />
        </mxCell>
        <mxCell id="ARoB9waAcoGM5nF3GwMx-2" value="&lt;font style=&quot;font-size: 7px;&quot;&gt;0000 03DF h&lt;/font&gt;" style="text;html=1;strokeColor=none;fillColor=none;align=center;verticalAlign=middle;whiteSpace=wrap;rounded=0;" parent="1" vertex="1">
          <mxGeometry x="879" y="44" width="71" height="12" as="geometry" />
        </mxCell>
        <mxCell id="ARoB9waAcoGM5nF3GwMx-3" value="&lt;font style=&quot;font-size: 7px;&quot;&gt;0000 03AF h&lt;/font&gt;" style="text;html=1;strokeColor=none;fillColor=none;align=center;verticalAlign=middle;whiteSpace=wrap;rounded=0;" parent="1" vertex="1">
          <mxGeometry x="879" y="70" width="71" height="17" as="geometry" />
        </mxCell>
      </root>
    </mxGraphModel>
  </diagram>
</mxfile>
